<svg width="390" height="778" viewBox="0 0 390 778" fill="none" xmlns="http://www.w3.org/2000/svg">
<g filter="url(#filter0_f_0_1)">
<mask id="path-1-inside-1_0_1" fill="white">
<path fill-rule="evenodd" clip-rule="evenodd" d="M290.967 161.587C270.424 161.587 253.771 145.329 253.771 125.273C253.771 105.217 270.424 88.9583 290.967 88.9583C311.51 88.9583 328.163 105.217 328.163 125.273C328.163 135.729 337.315 156.353 347.772 156.353H441.552C459.62 156.353 474.267 141.706 474.267 123.637V121.674C474.267 103.606 488.915 88.9584 506.983 88.9584H517.284C535.353 88.9584 550 103.606 550 121.674L550 344.795C550 362.863 535.353 377.511 517.284 377.511H506.983C488.914 377.511 474.267 362.863 474.267 344.795V336.289C474.267 318.221 459.62 303.573 441.552 303.573H424.372C406.303 303.573 391.656 318.221 391.656 336.289V370.967C391.656 389.036 377.009 403.683 358.94 403.683L279.114 403.683C261.046 403.683 246.399 389.036 246.399 370.967L246.399 267.296C246.399 251.194 259.451 238.142 275.552 238.142C291.654 238.142 304.706 225.089 304.706 208.988V173.085C304.706 166.32 297.732 161.587 290.967 161.587Z"/>
</mask>
<path d="M257.697 125.273C257.697 143.072 272.503 157.661 290.967 157.661V165.513C268.345 165.513 249.845 147.585 249.845 125.273H257.697ZM290.967 92.8841C272.503 92.8841 257.697 107.473 257.697 125.273H249.845C249.845 102.96 268.345 85.0324 290.967 85.0324V92.8841ZM324.238 125.273C324.238 107.473 309.431 92.8841 290.967 92.8841V85.0324C313.589 85.0324 332.089 102.96 332.089 125.273H324.238ZM347.772 152.427L441.552 152.427V160.279H347.772V152.427ZM470.341 123.637V121.674H478.193V123.637H470.341ZM506.983 85.0325H517.284V92.8843H506.983V85.0325ZM553.926 121.674L553.926 344.795H546.074L546.074 121.674H553.926ZM517.284 381.436H506.983V373.585H517.284V381.436ZM470.341 344.795V336.289H478.193V344.795H470.341ZM441.552 307.499H424.372V299.648H441.552V307.499ZM395.582 336.289V370.967H387.73V336.289H395.582ZM358.94 407.609L279.114 407.609V399.757L358.94 399.757V407.609ZM242.473 370.967L242.473 267.296H250.324L250.324 370.967H242.473ZM300.78 208.988V173.085H308.632V208.988H300.78ZM300.78 173.085C300.78 171.162 299.81 169.345 297.952 167.889C296.065 166.411 293.486 165.513 290.967 165.513V157.661C295.213 157.661 299.504 159.13 302.795 161.709C306.115 164.311 308.632 168.243 308.632 173.085H300.78ZM275.552 234.216C289.485 234.216 300.78 222.921 300.78 208.988H308.632C308.632 227.257 293.822 242.068 275.552 242.068V234.216ZM242.473 267.296C242.473 249.026 257.283 234.216 275.552 234.216V242.068C261.619 242.068 250.324 253.363 250.324 267.296H242.473ZM279.114 407.609C258.878 407.609 242.473 391.204 242.473 370.967H250.324C250.324 386.868 263.214 399.757 279.114 399.757V407.609ZM395.582 370.967C395.582 391.204 379.177 407.609 358.94 407.609V399.757C374.841 399.757 387.73 386.868 387.73 370.967H395.582ZM424.372 307.499C408.472 307.499 395.582 320.389 395.582 336.289H387.73C387.73 316.053 404.135 299.648 424.372 299.648V307.499ZM470.341 336.289C470.341 320.389 457.452 307.499 441.552 307.499V299.648C461.788 299.648 478.193 316.053 478.193 336.289H470.341ZM506.983 381.436C486.746 381.436 470.341 365.031 470.341 344.795H478.193C478.193 360.695 491.083 373.585 506.983 373.585V381.436ZM553.926 344.795C553.926 365.031 537.521 381.436 517.284 381.436V373.585C533.184 373.585 546.074 360.695 546.074 344.795H553.926ZM517.284 85.0325C537.521 85.0325 553.926 101.437 553.926 121.674H546.074C546.074 105.774 533.185 92.8843 517.284 92.8843V85.0325ZM470.341 121.674C470.341 101.437 486.746 85.0325 506.983 85.0325V92.8843C491.083 92.8843 478.193 105.774 478.193 121.674H470.341ZM441.552 152.427C457.452 152.427 470.341 139.537 470.341 123.637H478.193C478.193 143.874 461.788 160.279 441.552 160.279V152.427ZM332.089 125.273C332.089 129.644 334.101 136.755 337.477 142.826C339.142 145.819 341.018 148.334 342.924 150.05C344.851 151.786 346.486 152.427 347.772 152.427V160.279C343.829 160.279 340.399 158.342 337.67 155.884C334.918 153.407 332.545 150.112 330.616 146.642C326.802 139.787 324.238 131.358 324.238 125.273H332.089Z" fill="#377DC9" mask="url(#path-1-inside-1_0_1)"/>
</g>
<g filter="url(#filter1_f_0_1)">
<mask id="path-3-inside-2_0_1" fill="white">
<path fill-rule="evenodd" clip-rule="evenodd" d="M285.078 161.587C264.535 161.587 247.882 145.329 247.882 125.273C247.882 105.217 264.535 88.9583 285.078 88.9583C305.621 88.9583 322.274 105.217 322.274 125.273C322.274 135.729 331.426 156.353 341.883 156.353H435.662C453.731 156.353 468.378 141.706 468.378 123.637V121.674C468.378 103.606 483.025 88.9584 501.094 88.9584H511.395C529.464 88.9584 544.111 103.606 544.111 121.674L544.111 344.795C544.111 362.863 529.464 377.511 511.395 377.511H501.094C483.025 377.511 468.378 362.863 468.378 344.795V336.289C468.378 318.221 453.731 303.573 435.662 303.573H418.483C400.414 303.573 385.767 318.221 385.767 336.289V370.967C385.767 389.036 371.12 403.683 353.051 403.683L273.225 403.683C255.157 403.683 240.51 389.036 240.51 370.967L240.51 267.296C240.51 251.195 253.562 238.142 269.664 238.142C285.765 238.142 298.818 225.089 298.818 208.988V173.085C298.818 166.321 291.843 161.587 285.078 161.587Z"/>
</mask>
<path d="M251.808 125.273C251.808 143.072 266.614 157.661 285.078 157.661V165.513C262.456 165.513 243.956 147.585 243.956 125.273H251.808ZM285.078 92.8841C266.614 92.8841 251.808 107.473 251.808 125.273H243.956C243.956 102.96 262.456 85.0324 285.078 85.0324V92.8841ZM318.349 125.273C318.349 107.473 303.542 92.8841 285.078 92.8841V85.0324C307.7 85.0324 326.2 102.96 326.2 125.273H318.349ZM341.883 152.427L435.662 152.427V160.279H341.883V152.427ZM464.452 123.637V121.674H472.304V123.637H464.452ZM501.094 85.0325H511.395V92.8843H501.094V85.0325ZM548.037 121.674L548.037 344.795H540.185L540.185 121.674H548.037ZM511.395 381.436H501.094V373.585H511.395V381.436ZM464.452 344.795V336.289H472.304V344.795H464.452ZM435.662 307.499H418.483V299.648H435.662V307.499ZM389.693 336.289V370.967H381.841V336.289H389.693ZM353.051 407.609L273.225 407.609V399.757L353.051 399.757V407.609ZM236.584 370.967L236.584 267.296H244.435L244.435 370.967H236.584ZM294.892 208.988V173.085H302.744V208.988H294.892ZM294.892 173.085C294.892 171.162 293.921 169.345 292.063 167.89C290.176 166.411 287.597 165.513 285.078 165.513V157.661C289.324 157.661 293.615 159.13 296.906 161.709C300.227 164.311 302.744 168.244 302.744 173.085H294.892ZM269.664 234.216C283.597 234.216 294.892 222.921 294.892 208.988H302.744C302.744 227.257 287.933 242.068 269.664 242.068V234.216ZM236.584 267.296C236.584 249.026 251.394 234.216 269.664 234.216V242.068C255.73 242.068 244.435 253.363 244.435 267.296H236.584ZM273.225 407.609C252.989 407.609 236.584 391.204 236.584 370.967H244.435C244.435 386.868 257.325 399.757 273.225 399.757V407.609ZM389.693 370.967C389.693 391.204 373.288 407.609 353.051 407.609V399.757C368.952 399.757 381.841 386.868 381.841 370.967H389.693ZM418.483 307.499C402.583 307.499 389.693 320.389 389.693 336.289H381.841C381.841 316.053 398.246 299.648 418.483 299.648V307.499ZM464.452 336.289C464.452 320.389 451.563 307.499 435.662 307.499V299.648C455.899 299.648 472.304 316.053 472.304 336.289H464.452ZM501.094 381.436C480.857 381.436 464.452 365.031 464.452 344.795H472.304C472.304 360.695 485.194 373.585 501.094 373.585V381.436ZM548.037 344.795C548.037 365.031 531.632 381.436 511.395 381.436V373.585C527.295 373.585 540.185 360.695 540.185 344.795H548.037ZM511.395 85.0325C531.632 85.0325 548.037 101.437 548.037 121.674H540.185C540.185 105.774 527.295 92.8843 511.395 92.8843V85.0325ZM464.452 121.674C464.452 101.437 480.857 85.0325 501.094 85.0325V92.8843C485.194 92.8843 472.304 105.774 472.304 121.674H464.452ZM435.662 152.427C451.563 152.427 464.452 139.537 464.452 123.637H472.304C472.304 143.874 455.899 160.279 435.662 160.279V152.427ZM326.2 125.273C326.2 129.644 328.212 136.755 331.588 142.826C333.253 145.819 335.129 148.334 337.035 150.05C338.962 151.786 340.597 152.427 341.883 152.427V160.279C337.94 160.279 334.51 158.342 331.781 155.884C329.029 153.407 326.656 150.112 324.727 146.642C320.913 139.787 318.349 131.358 318.349 125.273H326.2Z" fill="#377DC9" mask="url(#path-3-inside-2_0_1)"/>
</g>
<g filter="url(#filter2_f_0_1)">
<mask id="path-5-inside-3_0_1" fill="white">
<path fill-rule="evenodd" clip-rule="evenodd" d="M287.041 161.587C266.499 161.587 249.845 145.329 249.845 125.273C249.845 105.217 266.499 88.9583 287.041 88.9583C307.584 88.9583 324.238 105.217 324.238 125.273C324.238 135.729 333.389 156.353 343.846 156.353H437.626C455.694 156.353 470.341 141.706 470.341 123.637V121.674C470.341 103.606 484.989 88.9584 503.057 88.9584H513.359C531.427 88.9584 546.074 103.606 546.074 121.674L546.074 344.795C546.074 362.863 531.427 377.511 513.359 377.511H503.057C484.989 377.511 470.341 362.863 470.341 344.795V336.289C470.341 318.221 455.694 303.573 437.626 303.573H420.446C402.378 303.573 387.73 318.221 387.73 336.289V370.967C387.73 389.036 373.083 403.683 355.015 403.683L275.188 403.683C257.12 403.683 242.473 389.036 242.473 370.967L242.473 267.296C242.473 251.195 255.525 238.142 271.627 238.142C287.728 238.142 300.781 225.089 300.781 208.988V173.085C300.781 166.321 293.806 161.587 287.041 161.587Z"/>
</mask>
<path d="M253.117 125.273C253.117 143.448 268.231 158.315 287.041 158.315V164.859C264.766 164.859 246.574 147.209 246.574 125.273H253.117ZM287.041 92.2298C268.231 92.2298 253.117 107.097 253.117 125.273H246.574C246.574 103.336 264.766 85.6867 287.041 85.6867V92.2298ZM320.966 125.273C320.966 107.097 305.852 92.2298 287.041 92.2298V85.6867C309.317 85.6867 327.509 103.336 327.509 125.273H320.966ZM343.846 153.081H437.626V159.625H343.846V153.081ZM467.07 123.637V121.674H473.613V123.637H467.07ZM503.057 85.6868H513.359V92.2299H503.057V85.6868ZM549.346 121.674L549.346 344.795H542.803L542.803 121.674H549.346ZM513.359 380.782H503.057V374.239H513.359V380.782ZM467.07 344.795V336.289H473.613V344.795H467.07ZM437.626 306.845H420.446V300.302H437.626V306.845ZM391.002 336.289V370.967H384.459V336.289H391.002ZM355.015 406.955L275.188 406.955V400.412L355.015 400.412V406.955ZM239.201 370.967L239.201 267.296H245.744L245.744 370.967H239.201ZM297.509 208.988V173.085H304.052V208.988H297.509ZM297.509 173.085C297.509 170.919 296.41 168.926 294.43 167.374C292.426 165.804 289.704 164.859 287.041 164.859V158.315C291.144 158.315 295.291 159.737 298.466 162.224C301.664 164.731 304.052 168.487 304.052 173.085H297.509ZM271.627 234.87C285.921 234.87 297.509 223.282 297.509 208.988H304.052C304.052 226.896 289.535 241.413 271.627 241.413V234.87ZM239.201 267.296C239.201 249.388 253.719 234.87 271.627 234.87V241.413C257.332 241.413 245.744 253.001 245.744 267.296H239.201ZM275.188 406.955C255.313 406.955 239.201 390.843 239.201 370.967H245.744C245.744 387.229 258.927 400.412 275.188 400.412V406.955ZM391.002 370.967C391.002 390.843 374.89 406.955 355.015 406.955V400.412C371.276 400.412 384.459 387.229 384.459 370.967H391.002ZM420.446 306.845C404.184 306.845 391.002 320.028 391.002 336.289H384.459C384.459 316.414 400.571 300.302 420.446 300.302V306.845ZM467.07 336.289C467.07 320.028 453.887 306.845 437.626 306.845V300.302C457.501 300.302 473.613 316.414 473.613 336.289H467.07ZM503.057 380.782C483.182 380.782 467.07 364.67 467.07 344.795H473.613C473.613 361.056 486.796 374.239 503.057 374.239V380.782ZM549.346 344.795C549.346 364.67 533.234 380.782 513.359 380.782V374.239C529.62 374.239 542.803 361.056 542.803 344.795H549.346ZM513.359 85.6868C533.234 85.6868 549.346 101.799 549.346 121.674H542.803C542.803 105.413 529.62 92.2299 513.359 92.2299V85.6868ZM467.07 121.674C467.07 101.799 483.182 85.6868 503.057 85.6868V92.2299C486.796 92.2299 473.613 105.412 473.613 121.674H467.07ZM437.626 153.081C453.887 153.081 467.07 139.899 467.07 123.637H473.613C473.613 143.513 457.501 159.625 437.626 159.625V153.081ZM327.509 125.273C327.509 129.787 329.567 137.008 332.98 143.144C334.667 146.177 336.584 148.756 338.56 150.536C340.555 152.332 342.339 153.081 343.846 153.081V159.625C340.125 159.625 336.844 157.796 334.182 155.398C331.501 152.984 329.169 149.754 327.262 146.324C323.485 139.534 320.966 131.215 320.966 125.273H327.509Z" fill="#377DC9" mask="url(#path-5-inside-3_0_1)"/>
</g>
<g filter="url(#filter3_f_0_1)">
<mask id="path-7-inside-4_0_1" fill="white">
<path fill-rule="evenodd" clip-rule="evenodd" d="M166.497 13.0815C166.497 13.1015 166.513 13.1182 166.533 13.1196C182.906 14.2898 195.846 28.7707 195.846 46.4625C195.846 64.9194 181.763 79.8817 164.39 79.8817C151.895 79.8817 141.101 72.1407 136.026 60.9262C134.545 57.6547 131.498 55.1685 127.907 55.1685L84.0827 55.1685C79.7499 55.1685 76.2374 58.681 76.2374 63.0139V130.595C76.2374 136.292 82.3131 140.199 88.0092 140.101C88.1817 140.098 88.3544 140.097 88.5275 140.097C105.9 140.097 119.983 155.059 119.983 173.516C119.983 191.973 105.9 206.935 88.5275 206.935C71.1552 206.935 57.0722 191.973 57.0722 173.516C57.0722 171.712 57.2067 169.942 57.4655 168.216C58.3804 162.116 54.3201 155 48.1516 155L-143.208 155C-161.468 155 -176.27 140.197 -176.27 121.937V115.526C-176.27 111.194 -179.783 107.681 -184.116 107.681H-217.155C-221.488 107.681 -225 104.169 -225 99.8358V20.8888C-225 16.5559 -221.488 13.0435 -217.155 13.0434L-176.27 13.0434L66.2696 13.0433L166.459 13.0433C166.48 13.0433 166.497 13.0604 166.497 13.0815Z"/>
</mask>
<path d="M-176.27 13.0434V9.68109V13.0434ZM66.2696 13.0433V9.68098V13.0433ZM-217.155 13.0434L-217.155 16.4057L-217.155 13.0434ZM136.026 60.9262L139.089 59.5399L136.026 60.9262ZM57.4655 168.216L60.7906 168.715L57.4655 168.216ZM166.533 13.1196L166.773 9.76588L166.533 13.1196ZM166.773 9.76588C185.062 11.073 199.208 27.1689 199.208 46.4625H192.483C192.483 30.3725 180.75 17.5065 166.293 16.4733L166.773 9.76588ZM199.208 46.4625C199.208 66.5816 183.809 83.244 164.39 83.244V76.5195C179.717 76.5195 192.483 63.2573 192.483 46.4625H199.208ZM164.39 83.244C150.441 83.244 138.525 74.6038 132.962 62.3125L139.089 59.5399C143.677 69.6776 153.348 76.5195 164.39 76.5195V83.244ZM84.0827 51.8063L127.907 51.8063L127.907 58.5308L84.0827 58.5308L84.0827 51.8063ZM72.8751 130.595V63.0139H79.5997V130.595H72.8751ZM88.5275 143.459C88.3737 143.459 88.2201 143.46 88.0669 143.463L87.9515 136.739C88.1432 136.736 88.3352 136.734 88.5275 136.734V143.459ZM116.621 173.516C116.621 156.721 103.854 143.459 88.5275 143.459V136.734C107.946 136.734 123.345 153.397 123.345 173.516H116.621ZM88.5275 203.573C103.854 203.573 116.621 190.311 116.621 173.516H123.345C123.345 193.635 107.946 210.297 88.5275 210.297V203.573ZM60.4345 173.516C60.4345 190.311 73.2011 203.573 88.5275 203.573V210.297C69.1094 210.297 53.7099 193.635 53.7099 173.516H60.4345ZM60.7906 168.715C60.5565 170.276 60.4345 171.88 60.4345 173.516H53.7099C53.7099 171.545 53.8569 169.608 54.1404 167.718L60.7906 168.715ZM-143.208 151.638L48.1516 151.638V158.362L-143.208 158.362V151.638ZM-172.908 121.937C-172.908 138.34 -159.611 151.638 -143.208 151.638V158.362C-163.325 158.362 -179.632 142.054 -179.632 121.937H-172.908ZM-172.908 115.526V121.937H-179.632V115.526H-172.908ZM-217.155 104.319H-184.116V111.043H-217.155V104.319ZM-221.638 20.8888V99.8358H-228.362V20.8888H-221.638ZM-176.27 16.4057L-217.155 16.4057L-217.155 9.68117L-176.27 9.68109V16.4057ZM66.2696 16.4055L-176.27 16.4057V9.68109L66.2696 9.68098V16.4055ZM166.459 16.4055L66.2696 16.4055V9.68098L166.459 9.68098V16.4055ZM166.459 9.68098C168.337 9.68098 169.86 11.2034 169.86 13.0815H163.135C163.135 14.9173 164.623 16.4055 166.459 16.4055V9.68098ZM-179.632 115.526C-179.632 113.051 -181.64 111.043 -184.116 111.043V104.319C-177.926 104.319 -172.908 109.337 -172.908 115.526H-179.632ZM-228.362 20.8888C-228.362 14.699 -223.345 9.68117 -217.155 9.68117L-217.155 16.4057C-219.631 16.4057 -221.638 18.4129 -221.638 20.8888H-228.362ZM84.0827 58.5308C81.6068 58.5308 79.5997 60.538 79.5997 63.0139H72.8751C72.8751 56.8241 77.8929 51.8063 84.0827 51.8063L84.0827 58.5308ZM-217.155 111.043C-223.344 111.043 -228.362 106.026 -228.362 99.8358H-221.638C-221.638 102.312 -219.631 104.319 -217.155 104.319V111.043ZM132.962 62.3125C131.881 59.9226 129.858 58.5308 127.907 58.5308L127.907 51.8063C133.138 51.8063 137.209 55.3867 139.089 59.5399L132.962 62.3125ZM54.1404 167.718C54.4693 165.525 53.894 163.051 52.6557 161.168C51.4316 159.307 49.8202 158.362 48.1516 158.362V151.638C52.6515 151.638 56.1545 154.251 58.2739 157.473C60.3791 160.673 61.3766 164.808 60.7906 168.715L54.1404 167.718ZM79.5997 130.595C79.5997 132.144 80.4066 133.63 82.0073 134.833C83.6324 136.054 85.8422 136.775 87.9515 136.739L88.0669 143.463C84.4801 143.524 80.804 142.341 77.9672 140.209C75.1061 138.059 72.8751 134.743 72.8751 130.595H79.5997ZM166.293 16.4733C164.534 16.3476 163.135 14.8859 163.135 13.0815H169.86C169.86 11.3172 168.492 9.88873 166.773 9.76588L166.293 16.4733Z" fill="#F22828" mask="url(#path-7-inside-4_0_1)"/>
</g>
<g filter="url(#filter4_f_0_1)">
<mask id="path-9-inside-5_0_1" fill="white">
<path fill-rule="evenodd" clip-rule="evenodd" d="M166.52 8.03824C166.52 8.05829 166.535 8.07492 166.555 8.07635C182.929 9.24623 195.869 23.7273 195.869 41.4193C195.869 59.8762 181.786 74.8385 164.413 74.8385C151.918 74.8385 141.124 67.0975 136.049 55.883C134.568 52.6115 131.521 50.1253 127.93 50.1253L84.1052 50.1253C79.7723 50.1253 76.2598 53.6378 76.2598 57.9707V125.552C76.2598 131.249 82.3355 135.156 88.0316 135.058C88.2041 135.055 88.3769 135.053 88.55 135.053C105.922 135.053 120.005 150.016 120.005 168.473C120.005 186.93 105.922 201.892 88.55 201.892C71.1777 201.892 57.0947 186.93 57.0947 168.473C57.0947 166.669 57.2291 164.899 57.488 163.173C58.4028 157.073 54.3426 149.956 48.174 149.956L-143.185 149.956C-161.445 149.956 -176.248 135.154 -176.248 116.894V110.483C-176.248 106.15 -179.76 102.638 -184.093 102.638H-217.132C-221.465 102.638 -224.978 99.1252 -224.978 94.7923V15.8453C-224.978 11.5125 -221.465 7.99998 -217.132 7.99998L-176.248 7.99989L76.2598 7.99989C76.2598 7.99989 76.2598 7.99994 76.2598 7.99997C76.2598 8.00002 76.2599 8.00005 76.2599 8.00005L166.482 8.00005C166.503 8.00005 166.52 8.01715 166.52 8.03824Z"/>
</mask>
<path d="M-176.248 7.99989V4.63762V7.99989ZM-217.132 7.99998V11.3623V7.99998ZM88.0316 135.058L88.0893 138.42L88.0316 135.058ZM166.555 8.07635L166.316 11.4301L166.555 8.07635ZM166.795 4.72263C185.085 6.02945 199.231 22.1254 199.231 41.4193H192.506C192.506 25.3291 180.772 12.463 166.316 11.4301L166.795 4.72263ZM199.231 41.4193C199.231 61.5384 183.832 78.2008 164.413 78.2008V71.4763C179.74 71.4763 192.506 58.2141 192.506 41.4193H199.231ZM164.413 78.2008C150.464 78.2008 138.548 69.5606 132.985 57.2693L139.112 54.4967C143.7 64.6344 153.371 71.4763 164.413 71.4763V78.2008ZM84.1052 46.763L127.93 46.763L127.93 53.4876L84.1052 53.4876L84.1052 46.763ZM72.8975 125.552V57.9707H79.6221V125.552H72.8975ZM88.55 138.416C88.3961 138.416 88.2426 138.417 88.0893 138.42L87.9739 131.696C88.1656 131.693 88.3576 131.691 88.55 131.691V138.416ZM116.643 168.473C116.643 151.678 103.876 138.416 88.55 138.416V131.691C107.968 131.691 123.368 148.353 123.368 168.473H116.643ZM88.55 198.53C103.876 198.53 116.643 185.267 116.643 168.473H123.368C123.368 188.592 107.968 205.254 88.55 205.254V198.53ZM60.4569 168.473C60.4569 185.267 73.2235 198.53 88.55 198.53V205.254C69.1318 205.254 53.7324 188.592 53.7324 168.473H60.4569ZM60.8131 163.672C60.5789 165.233 60.4569 166.836 60.4569 168.473H53.7324C53.7324 166.502 53.8793 164.565 54.1629 162.674L60.8131 163.672ZM-143.185 146.594L48.174 146.594V153.319L-143.185 153.319V146.594ZM-172.885 116.894C-172.885 133.297 -159.588 146.594 -143.185 146.594V153.319C-163.302 153.319 -179.61 137.011 -179.61 116.894H-172.885ZM-172.885 110.483V116.894H-179.61V110.483H-172.885ZM-217.132 99.2753H-184.093V106H-217.132V99.2753ZM-221.615 15.8453V94.7923H-228.34V15.8453H-221.615ZM-176.248 11.3622L-217.132 11.3623L-217.132 4.6377L-176.248 4.63762L-176.248 11.3622ZM76.2598 11.3622L-176.248 11.3622V4.63762L76.2598 4.63762V11.3622ZM166.482 11.3623L76.2599 11.3623V4.63777L166.482 4.63777V11.3623ZM166.482 4.63777C168.36 4.63777 169.882 6.1602 169.882 8.03824H163.158C163.158 9.87408 164.646 11.3623 166.482 11.3623V4.63777ZM79.6221 7.99997C79.6221 6.1998 78.173 4.63777 76.2599 4.63777V11.3623C74.3467 11.3623 72.8975 9.80023 72.8975 7.99997H79.6221ZM76.2598 4.63762C78.1167 4.63762 79.6221 6.14299 79.6221 7.99997H72.8975C72.8975 9.85687 74.4029 11.3622 76.2598 11.3622V4.63762ZM-179.61 110.483C-179.61 108.007 -181.617 106 -184.093 106V99.2753C-177.903 99.2753 -172.885 104.293 -172.885 110.483H-179.61ZM-228.34 15.8453C-228.34 9.65552 -223.322 4.63771 -217.132 4.6377L-217.132 11.3623C-219.608 11.3623 -221.615 13.3694 -221.615 15.8453H-228.34ZM84.1052 53.4876C81.6292 53.4876 79.6221 55.4947 79.6221 57.9707H72.8975C72.8975 51.7809 77.9154 46.763 84.1052 46.763L84.1052 53.4876ZM-217.132 106C-223.322 106 -228.34 100.982 -228.34 94.7923H-221.615C-221.615 97.2682 -219.608 99.2753 -217.132 99.2753V106ZM132.985 57.2693C131.904 54.8794 129.881 53.4876 127.93 53.4876L127.93 46.763C133.161 46.763 137.232 50.3435 139.112 54.4967L132.985 57.2693ZM54.1629 162.674C54.4917 160.481 53.9165 158.007 52.6782 156.125C51.454 154.264 49.8426 153.319 48.174 153.319V146.594C52.6739 146.594 56.1769 149.207 58.2963 152.429C60.4016 155.63 61.399 159.764 60.8131 163.672L54.1629 162.674ZM79.6221 125.552C79.6221 127.1 80.429 128.587 82.0297 129.79C83.6548 131.011 85.8646 131.732 87.9739 131.696L88.0893 138.42C84.5026 138.481 80.8265 137.298 77.9897 135.166C75.1285 133.015 72.8975 129.7 72.8975 125.552H79.6221ZM166.316 11.4301C164.557 11.3044 163.158 9.84264 163.158 8.03824H169.882C169.882 6.27393 168.514 4.84544 166.795 4.72263L166.316 11.4301Z" fill="#F22828" mask="url(#path-9-inside-5_0_1)"/>
</g>
<g filter="url(#filter5_f_0_1)">
<mask id="path-11-inside-6_0_1" fill="white">
<path fill-rule="evenodd" clip-rule="evenodd" d="M166.513 9.71941C166.513 9.73947 166.528 9.75612 166.548 9.75755C182.921 10.9277 195.861 25.4086 195.861 43.1004C195.861 61.5574 181.778 76.5197 164.406 76.5197C151.91 76.5197 141.116 68.7787 136.041 57.5641C134.56 54.2926 131.513 51.8065 127.922 51.8065L84.0973 51.8065C79.7645 51.8065 76.252 55.319 76.252 59.6518V127.233C76.252 132.93 82.3279 136.837 88.024 136.739C88.1966 136.736 88.3695 136.735 88.5427 136.735C105.915 136.735 119.998 151.697 119.998 170.154C119.998 188.611 105.915 203.573 88.5427 203.573C71.1704 203.573 57.0874 188.611 57.0874 170.154C57.0874 168.35 57.2218 166.58 57.4807 164.854C58.3955 158.754 54.3353 151.638 48.1667 151.638L-143.193 151.638C-161.453 151.638 -176.256 136.835 -176.256 118.575V112.164C-176.256 107.832 -179.768 104.319 -184.101 104.319H-217.14C-221.472 104.319 -224.985 100.807 -224.985 96.4737V17.5267C-224.985 13.1939 -221.472 9.6814 -217.14 9.68138L-176.256 9.6813L66.2847 9.6812L166.474 9.6812C166.495 9.6812 166.513 9.6983 166.513 9.71941Z"/>
</mask>
<path d="M-176.256 9.6813V6.87939V9.6813ZM66.2847 9.6812V6.87929V9.6812ZM-217.14 9.68138V12.4833V9.68138ZM57.4807 164.854L60.2516 165.27L57.4807 164.854ZM88.024 136.739L88.0722 139.54L88.024 136.739ZM166.548 9.75755L166.748 6.96277L166.548 9.75755ZM166.748 6.96277C184.718 8.24709 198.663 24.0738 198.663 43.1004H193.059C193.059 26.7435 181.124 13.6083 166.348 12.5523L166.748 6.96277ZM198.663 43.1004C198.663 62.9426 183.483 79.3216 164.406 79.3216V73.7178C180.073 73.7178 193.059 60.1722 193.059 43.1004H198.663ZM164.406 79.3216C150.699 79.3216 138.97 70.8313 133.488 58.7194L138.593 56.4089C143.263 66.7261 153.121 73.7178 164.406 73.7178V79.3216ZM84.0973 49.0046L127.922 49.0046L127.922 54.6084L84.0973 54.6084L84.0973 49.0046ZM73.4501 127.233V59.6518H79.0539V127.233H73.4501ZM88.5427 139.536C88.3855 139.536 88.2287 139.538 88.0722 139.54L87.9759 133.938C88.1645 133.934 88.3534 133.933 88.5427 133.933V139.536ZM117.196 170.154C117.196 153.082 104.21 139.536 88.5427 139.536V133.933C107.62 133.933 122.8 150.312 122.8 170.154H117.196ZM88.5427 200.771C104.21 200.771 117.196 187.226 117.196 170.154H122.8C122.8 189.996 107.62 206.375 88.5427 206.375V200.771ZM59.8893 170.154C59.8893 187.226 72.8753 200.771 88.5427 200.771V206.375C69.4655 206.375 54.2855 189.996 54.2855 170.154H59.8893ZM60.2516 165.27C60.0133 166.859 59.8893 168.49 59.8893 170.154H54.2855C54.2855 168.211 54.4303 166.302 54.7097 164.439L60.2516 165.27ZM-143.193 148.836L48.1667 148.836V154.44L-143.193 154.44V148.836ZM-173.454 118.575C-173.454 135.288 -159.906 148.836 -143.193 148.836V154.44C-163 154.44 -179.057 138.383 -179.057 118.575H-173.454ZM-173.454 112.164V118.575H-179.057V112.164H-173.454ZM-217.14 101.517H-184.101V107.121H-217.14V101.517ZM-222.183 17.5267V96.4737H-227.787V17.5267H-222.183ZM-176.256 12.4832L-217.14 12.4833L-217.14 6.87949L-176.256 6.87939L-176.256 12.4832ZM66.2847 12.4831L-176.256 12.4832V6.87939L66.2847 6.87929V12.4831ZM166.474 12.4831L66.2847 12.4831V6.87929L166.474 6.87929V12.4831ZM166.474 6.87929C168.043 6.87929 169.314 8.15085 169.314 9.71941H163.711C163.711 11.2458 164.948 12.4831 166.474 12.4831V6.87929ZM-179.057 112.164C-179.057 109.379 -181.315 107.121 -184.101 107.121V101.517C-178.221 101.517 -173.454 106.284 -173.454 112.164H-179.057ZM-227.787 17.5267C-227.787 11.6464 -223.02 6.87949 -217.14 6.87949L-217.14 12.4833C-219.925 12.4833 -222.183 14.7413 -222.183 17.5267H-227.787ZM84.0973 54.6084C81.3119 54.6084 79.0539 56.8664 79.0539 59.6518H73.4501C73.4501 53.7715 78.217 49.0046 84.0973 49.0046L84.0973 54.6084ZM-217.14 107.121C-223.02 107.121 -227.787 102.354 -227.787 96.4737H-222.183C-222.183 99.2591 -219.925 101.517 -217.14 101.517V107.121ZM133.488 58.7194C132.34 56.1826 130.146 54.6084 127.922 54.6084L127.922 49.0046C132.88 49.0046 136.78 52.4026 138.593 56.4089L133.488 58.7194ZM54.7097 164.439C55.06 162.103 54.4496 159.491 53.1391 157.498C51.8403 155.524 50.0713 154.44 48.1667 154.44V148.836C52.4307 148.836 55.776 151.31 57.8208 154.419C59.8539 157.509 60.8161 161.505 60.2516 165.27L54.7097 164.439ZM79.0539 127.233C79.0539 128.998 79.9795 130.637 81.6853 131.919C83.4114 133.216 85.7435 133.976 87.9759 133.938L88.0722 139.54C84.6085 139.6 81.0545 138.455 78.3186 136.399C75.5625 134.327 73.4501 131.164 73.4501 127.233H79.0539ZM166.348 12.5523C164.879 12.4473 163.711 11.2264 163.711 9.71941H169.314C169.314 8.25252 168.177 7.06491 166.748 6.96277L166.348 12.5523Z" fill="#F22828" mask="url(#path-11-inside-6_0_1)"/>
</g>
<g filter="url(#filter6_f_0_1)">
<mask id="path-13-inside-7_0_1" fill="white">
<path fill-rule="evenodd" clip-rule="evenodd" d="M-65.9749 537.746C-65.9749 517.393 -49.4753 500.893 -29.1219 500.893H55.8196C76.1729 500.893 92.6726 517.393 92.6726 537.746V540.941C92.6726 560.838 108.802 576.967 128.699 576.967C148.595 576.967 164.725 593.097 164.725 612.993V616.189C164.725 636.542 148.225 653.042 127.872 653.042H42.9301C22.5768 653.042 6.07713 636.542 6.07713 616.189V612.993C6.07713 593.097 -10.0523 576.967 -29.9489 576.967C-49.8455 576.967 -65.9749 560.838 -65.9749 540.941V537.746Z"/>
</mask>
<path d="M55.8196 505.315H-29.1219V496.471H55.8196V505.315ZM88.2502 540.941V537.746H97.0949V540.941H88.2502ZM160.302 616.189V612.993H169.147V616.189H160.302ZM42.9301 648.619H127.872V657.464H42.9301V648.619ZM10.4995 612.993V616.189H1.65477V612.993H10.4995ZM-61.5526 537.746V540.941H-70.3973V537.746H-61.5526ZM-29.9489 581.39C-52.2879 581.39 -70.3973 563.28 -70.3973 540.941H-61.5526C-61.5526 558.396 -47.4031 572.545 -29.9489 572.545V581.39ZM1.65477 612.993C1.65477 595.539 -12.4947 581.39 -29.9489 581.39V572.545C-7.60986 572.545 10.4995 590.654 10.4995 612.993H1.65477ZM42.9301 657.464C20.1344 657.464 1.65477 638.984 1.65477 616.189H10.4995C10.4995 634.1 25.0192 648.619 42.9301 648.619V657.464ZM169.147 616.189C169.147 638.984 150.667 657.464 127.872 657.464V648.619C145.783 648.619 160.302 634.1 160.302 616.189H169.147ZM128.699 572.545C151.038 572.545 169.147 590.654 169.147 612.993H160.302C160.302 595.539 146.153 581.39 128.699 581.39L128.699 572.545ZM97.0949 540.941C97.0949 558.396 111.244 572.545 128.699 572.545L128.699 581.39C106.36 581.39 88.2502 563.28 88.2502 540.941H97.0949ZM-29.1219 505.315C-47.0329 505.315 -61.5526 519.835 -61.5526 537.746H-70.3973C-70.3973 514.95 -51.9176 496.471 -29.1219 496.471V505.315ZM55.8196 496.471C78.6153 496.471 97.0949 514.95 97.0949 537.746H88.2502C88.2502 519.835 73.7305 505.315 55.8196 505.315V496.471Z" fill="#417336" mask="url(#path-13-inside-7_0_1)"/>
</g>
<g filter="url(#filter7_f_0_1)">
<mask id="path-15-inside-8_0_1" fill="white">
<path fill-rule="evenodd" clip-rule="evenodd" d="M-72.6082 537.746C-72.6082 517.393 -56.1086 500.893 -35.7552 500.893H49.1863C69.5396 500.893 86.0393 517.393 86.0393 537.746V540.941C86.0393 560.838 102.169 576.967 122.065 576.967C141.962 576.967 158.091 593.097 158.091 612.993V616.189C158.091 636.542 141.592 653.042 121.238 653.042H36.2968C15.9435 653.042 -0.556168 636.542 -0.556168 616.189V612.993C-0.556168 593.097 -16.6856 576.967 -36.5822 576.967C-56.4788 576.967 -72.6082 560.838 -72.6082 540.941V537.746Z"/>
</mask>
<path d="M49.1863 505.315H-35.7552V496.471H49.1863V505.315ZM81.6169 540.941V537.746H90.4616V540.941H81.6169ZM153.669 616.189V612.993H162.514V616.189H153.669ZM36.2968 648.619H121.238V657.464H36.2968V648.619ZM3.8662 612.993V616.189H-4.97853V612.993H3.8662ZM-68.1858 537.746V540.941H-77.0306V537.746H-68.1858ZM-36.5822 581.39C-58.9212 581.39 -77.0306 563.28 -77.0306 540.941H-68.1858C-68.1858 558.396 -54.0364 572.545 -36.5822 572.545V581.39ZM-4.97853 612.993C-4.97853 595.539 -19.128 581.39 -36.5822 581.39V572.545C-14.2432 572.545 3.8662 590.654 3.8662 612.993H-4.97853ZM36.2968 657.464C13.5011 657.464 -4.97853 638.984 -4.97853 616.189H3.8662C3.8662 634.1 18.3859 648.619 36.2968 648.619V657.464ZM162.514 616.189C162.514 638.984 144.034 657.464 121.238 657.464V648.619C139.149 648.619 153.669 634.1 153.669 616.189H162.514ZM122.065 572.545C144.404 572.545 162.514 590.654 162.514 612.993H153.669C153.669 595.539 139.52 581.39 122.065 581.39L122.065 572.545ZM90.4616 540.941C90.4616 558.396 104.611 572.545 122.065 572.545L122.065 581.39C99.7263 581.39 81.6169 563.28 81.6169 540.941H90.4616ZM-35.7552 505.315C-53.6661 505.315 -68.1858 519.835 -68.1858 537.746H-77.0306C-77.0306 514.95 -58.5509 496.471 -35.7552 496.471V505.315ZM49.1863 496.471C71.982 496.471 90.4616 514.95 90.4616 537.746H81.6169C81.6169 519.835 67.0972 505.315 49.1863 505.315V496.471Z" fill="#417336" mask="url(#path-15-inside-8_0_1)"/>
</g>
<g filter="url(#filter8_f_0_1)">
<mask id="path-17-inside-9_0_1" fill="white">
<path fill-rule="evenodd" clip-rule="evenodd" d="M-70.3968 537.746C-70.3968 517.393 -53.8971 500.893 -33.5438 500.893H51.3977C71.751 500.893 88.2507 517.393 88.2507 537.746V540.941C88.2507 560.838 104.38 576.967 124.277 576.967C144.173 576.967 160.303 593.097 160.303 612.993V616.189C160.303 636.542 143.803 653.042 123.45 653.042H38.5083C18.1549 653.042 1.65526 636.542 1.65526 616.189V612.993C1.65526 593.097 -14.4741 576.967 -34.3708 576.967C-54.2674 576.967 -70.3968 560.838 -70.3968 540.941V537.746Z"/>
</mask>
<path d="M51.3977 504.578H-33.5438V497.208H51.3977V504.578ZM84.5654 540.941V537.746H91.936V540.941H84.5654ZM156.617 616.189V612.993H163.988V616.189H156.617ZM38.5083 649.356H123.45V656.727H38.5083V649.356ZM5.34056 612.993V616.189H-2.03003V612.993H5.34056ZM-66.7115 537.746V540.941H-74.0821V537.746H-66.7115ZM-34.3708 580.653C-56.3027 580.653 -74.0821 562.873 -74.0821 540.941H-66.7115C-66.7115 558.803 -52.232 573.282 -34.3708 573.282V580.653ZM-2.03003 612.993C-2.03003 595.132 -16.5095 580.653 -34.3708 580.653V573.282C-12.4388 573.282 5.34056 591.061 5.34056 612.993H-2.03003ZM38.5083 656.727C16.1196 656.727 -2.03003 638.577 -2.03003 616.189H5.34056C5.34056 634.507 20.1903 649.356 38.5083 649.356V656.727ZM163.988 616.189C163.988 638.577 145.838 656.727 123.45 656.727V649.356C141.768 649.356 156.617 634.507 156.617 616.189H163.988ZM124.277 573.282C146.209 573.282 163.988 591.061 163.988 612.993H156.617C156.617 595.132 142.138 580.653 124.277 580.653L124.277 573.282ZM91.936 540.941C91.936 558.803 106.415 573.282 124.277 573.282L124.277 580.653C102.345 580.653 84.5654 562.873 84.5654 540.941H91.936ZM-33.5438 504.578C-51.8618 504.578 -66.7115 519.428 -66.7115 537.746H-74.0821C-74.0821 515.357 -55.9325 497.208 -33.5438 497.208V504.578ZM51.3977 497.208C73.7864 497.208 91.936 515.357 91.936 537.746H84.5654C84.5654 519.428 69.7157 504.578 51.3977 504.578V497.208Z" fill="#417336" mask="url(#path-17-inside-9_0_1)"/>
</g>
<g filter="url(#filter9_f_0_1)">
<mask id="path-19-inside-10_0_1" fill="white">
<path fill-rule="evenodd" clip-rule="evenodd" d="M-70.3968 537.746C-70.3968 517.393 -53.8971 500.893 -33.5438 500.893H51.3977C71.751 500.893 88.2507 517.393 88.2507 537.746V540.941C88.2507 560.838 104.38 576.967 124.277 576.967C144.173 576.967 160.303 593.097 160.303 612.993V616.189C160.303 636.542 143.803 653.042 123.45 653.042H38.5083C18.1549 653.042 1.65526 636.542 1.65526 616.189V612.993C1.65526 593.097 -14.4741 576.967 -34.3708 576.967C-54.2674 576.967 -70.3968 560.838 -70.3968 540.941V537.746Z"/>
</mask>
<path d="M51.3977 504.578H-33.5438V497.208H51.3977V504.578ZM84.5654 540.941V537.746H91.936V540.941H84.5654ZM156.617 616.189V612.993H163.988V616.189H156.617ZM38.5083 649.356H123.45V656.727H38.5083V649.356ZM5.34056 612.993V616.189H-2.03003V612.993H5.34056ZM-66.7115 537.746V540.941H-74.0821V537.746H-66.7115ZM-34.3708 580.653C-56.3027 580.653 -74.0821 562.873 -74.0821 540.941H-66.7115C-66.7115 558.803 -52.232 573.282 -34.3708 573.282V580.653ZM-2.03003 612.993C-2.03003 595.132 -16.5095 580.653 -34.3708 580.653V573.282C-12.4388 573.282 5.34056 591.061 5.34056 612.993H-2.03003ZM38.5083 656.727C16.1196 656.727 -2.03003 638.577 -2.03003 616.189H5.34056C5.34056 634.507 20.1903 649.356 38.5083 649.356V656.727ZM163.988 616.189C163.988 638.577 145.838 656.727 123.45 656.727V649.356C141.768 649.356 156.617 634.507 156.617 616.189H163.988ZM124.277 573.282C146.209 573.282 163.988 591.061 163.988 612.993H156.617C156.617 595.132 142.138 580.653 124.277 580.653L124.277 573.282ZM91.936 540.941C91.936 558.803 106.415 573.282 124.277 573.282L124.277 580.653C102.345 580.653 84.5654 562.873 84.5654 540.941H91.936ZM-33.5438 504.578C-51.8618 504.578 -66.7115 519.428 -66.7115 537.746H-74.0821C-74.0821 515.357 -55.9325 497.208 -33.5438 497.208V504.578ZM51.3977 497.208C73.7864 497.208 91.936 515.357 91.936 537.746H84.5654C84.5654 519.428 69.7157 504.578 51.3977 504.578V497.208Z" fill="#417336" mask="url(#path-19-inside-10_0_1)"/>
</g>
<g filter="url(#filter10_f_0_1)">
<mask id="path-21-inside-11_0_1" fill="white">
<path fill-rule="evenodd" clip-rule="evenodd" d="M154.997 734.166C167.883 715.61 193.1 710.823 211.319 723.475C219.711 729.303 233.951 730.848 239.779 722.456L253.098 703.277C258.926 694.884 252.504 682.081 244.111 676.254C225.892 663.601 221.569 638.302 234.455 619.745C247.341 601.188 272.557 596.402 290.777 609.054C308.996 621.706 313.319 647.005 300.433 665.562C293.975 674.862 291.838 691.45 301.139 697.908L325.367 714.733C337.798 723.366 354.874 720.286 363.507 707.855L400.526 654.547C406.73 645.612 398.981 631.25 390.046 625.045C372.155 612.621 367.909 587.777 380.564 569.555C390.897 554.675 409.304 548.811 425.451 553.926L426.437 552.506L435.83 559.028C435.844 559.038 435.857 559.047 435.871 559.056C435.884 559.066 435.897 559.075 435.911 559.084L488.849 595.846L485.486 600.689C502.203 612.299 506.344 635.262 494.735 651.98L385.849 808.779C374.24 825.497 351.276 829.638 334.558 818.029L302.818 795.988C302.651 795.872 302.421 795.913 302.305 796.081C302.189 796.248 301.96 796.289 301.792 796.173L257.533 765.438C247.488 758.462 227.95 769.939 220.975 779.983C208.089 798.54 182.873 803.327 164.653 790.675C146.434 778.023 142.111 752.723 154.997 734.166Z"/>
</mask>
<path d="M301.139 697.908L303.661 694.276L301.139 697.908ZM325.367 714.733L322.844 718.365L325.367 714.733ZM425.451 553.926L424.115 558.142L427.223 559.127L429.083 556.449L425.451 553.926ZM426.437 552.506L428.96 548.873L425.327 546.351L422.805 549.983L426.437 552.506ZM435.83 559.028L438.353 555.396L435.83 559.028ZM435.911 559.084L433.388 562.717L435.911 559.084ZM488.849 595.846L492.481 598.369L495.004 594.736L491.371 592.214L488.849 595.846ZM485.486 600.689L481.853 598.167L479.331 601.799L482.963 604.322L485.486 600.689ZM494.735 651.98L491.103 649.458L494.735 651.98ZM385.849 808.779L389.481 811.302L385.849 808.779ZM334.558 818.029L337.081 814.397L334.558 818.029ZM302.818 795.988L300.296 799.62L302.818 795.988ZM213.841 719.842C193.553 705.754 165.6 711.144 151.365 731.644L158.63 736.689C170.167 720.075 192.646 715.892 208.796 727.107L213.841 719.842ZM236.147 719.934C234.364 722.5 231.039 723.931 226.565 723.876C222.11 723.821 217.311 722.252 213.841 719.842L208.796 727.107C213.719 730.526 220.237 732.643 226.456 732.72C232.657 732.797 239.366 730.804 243.412 724.979L236.147 719.934ZM249.466 700.754L236.147 719.934L243.412 724.979L256.73 705.799L249.466 700.754ZM241.589 679.886C245.059 682.296 248.205 686.243 249.813 690.399C251.427 694.572 251.248 698.187 249.466 700.754L256.73 705.799C260.776 699.973 260.299 692.991 258.062 687.208C255.817 681.407 251.556 676.039 246.634 672.621L241.589 679.886ZM230.823 617.223C216.587 637.722 221.301 665.797 241.589 679.886L246.634 672.621C230.483 661.406 226.55 638.881 238.087 622.268L230.823 617.223ZM293.299 605.421C273.011 591.333 245.058 596.723 230.823 617.223L238.087 622.268C249.624 605.654 272.104 601.471 288.254 612.686L293.299 605.421ZM304.065 668.085C318.301 647.585 313.587 619.51 293.299 605.421L288.254 612.686C304.405 623.902 308.338 646.426 296.801 663.04L304.065 668.085ZM303.661 694.276C300.733 692.243 299.14 688.276 299.297 682.93C299.451 677.647 301.339 672.011 304.065 668.085L296.801 663.04C293.069 668.414 290.659 675.722 290.456 682.672C290.254 689.559 292.244 697.115 298.616 701.54L303.661 694.276ZM327.889 711.1L303.661 694.276L298.616 701.54L322.844 718.365L327.889 711.1ZM359.875 705.332C352.635 715.758 338.315 718.34 327.889 711.1L322.844 718.365C337.282 728.391 357.114 724.815 367.14 710.377L359.875 705.332ZM396.893 652.025L359.875 705.332L367.14 710.377L404.158 657.07L396.893 652.025ZM387.523 628.678C391.275 631.283 394.915 635.743 396.88 640.469C398.874 645.268 398.775 649.314 396.893 652.025L404.158 657.07C408.481 650.845 407.61 643.243 405.047 637.075C402.454 630.836 397.752 625.013 392.568 621.413L387.523 628.678ZM376.931 567.033C362.928 587.198 367.564 614.817 387.523 628.678L392.568 621.413C376.746 610.425 372.891 588.357 384.196 572.077L376.931 567.033ZM426.786 549.711C408.8 544.012 388.375 550.553 376.931 567.033L384.196 572.077C393.419 558.796 409.809 553.61 424.115 558.142L426.786 549.711ZM429.083 556.449L430.07 555.028L422.805 549.983L421.818 551.404L429.083 556.449ZM423.915 556.138L433.308 562.661L438.353 555.396L428.96 548.873L423.915 556.138ZM438.393 555.424C438.384 555.418 438.376 555.412 438.369 555.408C438.362 555.403 438.357 555.399 438.353 555.396L433.308 562.661C433.316 562.667 433.325 562.673 433.331 562.677C433.338 562.682 433.343 562.685 433.348 562.689L438.393 555.424ZM438.433 555.452C438.429 555.449 438.424 555.445 438.417 555.44C438.41 555.436 438.402 555.43 438.393 555.424L433.348 562.689C433.353 562.692 433.358 562.696 433.365 562.7C433.371 562.705 433.38 562.711 433.388 562.717L438.433 555.452ZM433.388 562.717L486.326 599.479L491.371 592.214L438.433 555.452L433.388 562.717ZM485.217 593.324L481.853 598.167L489.118 603.212L492.481 598.369L485.217 593.324ZM498.368 654.502C511.37 635.779 506.732 610.06 488.008 597.057L482.963 604.322C497.675 614.538 501.319 634.746 491.103 649.458L498.368 654.502ZM389.481 811.302L498.368 654.502L491.103 649.458L382.216 806.257L389.481 811.302ZM332.036 821.661C350.76 834.664 376.479 830.026 389.481 811.302L382.216 806.257C372 820.969 351.792 824.613 337.081 814.397L332.036 821.661ZM300.296 799.62L332.036 821.661L337.081 814.397L305.341 792.356L300.296 799.62ZM305.938 798.603C304.661 800.442 302.135 800.897 300.296 799.62L305.341 792.356C303.168 790.846 300.182 791.385 298.673 793.558L305.938 798.603ZM299.27 799.805C301.443 801.315 304.429 800.776 305.938 798.603L298.673 793.558C299.95 791.719 302.476 791.264 304.315 792.541L299.27 799.805ZM255.01 769.07L299.27 799.805L304.315 792.541L260.055 761.805L255.01 769.07ZM224.608 782.506C227.569 778.241 233.528 773.325 239.964 770.34C246.681 767.224 252.048 767.013 255.01 769.07L260.055 761.805C252.972 756.887 243.549 758.927 236.242 762.316C228.654 765.836 221.357 771.681 217.343 777.461L224.608 782.506ZM162.131 794.307C182.419 808.396 210.372 803.005 224.608 782.506L217.343 777.461C205.806 794.075 183.326 798.258 167.176 787.042L162.131 794.307ZM151.365 731.644C137.129 752.143 141.843 780.218 162.131 794.307L167.176 787.042C151.025 775.827 147.093 753.302 158.63 736.689L151.365 731.644Z" fill="#FDD05C" mask="url(#path-21-inside-11_0_1)"/>
</g>
<g filter="url(#filter11_f_0_1)">
<mask id="path-23-inside-12_0_1" fill="white">
<path fill-rule="evenodd" clip-rule="evenodd" d="M149.548 730.383C162.435 711.826 187.651 707.039 205.87 719.691C214.262 725.519 228.502 727.065 234.33 718.673L247.649 699.493C253.477 691.101 247.055 678.298 238.662 672.47C220.443 659.818 216.12 634.518 229.006 615.962C241.892 597.405 267.109 592.618 285.328 605.27C303.547 617.922 307.87 643.222 294.984 661.779C288.526 671.079 286.389 687.666 295.69 694.125L319.918 710.949C332.349 719.582 349.425 716.503 358.058 704.071L395.683 649.89C399.259 644.74 398.171 637.88 394.862 631.98L376.509 619.235L378.935 615.741C367.6 602.375 366.286 582.361 376.931 567.033C389.585 548.81 414.347 544.11 432.238 556.534C438.433 560.836 442.992 566.627 445.78 573.117L447.896 574.587C447.997 574.515 448.088 574.425 448.165 574.314C448.511 573.816 449.194 573.693 449.691 574.039L480.877 595.695C497.595 607.304 501.736 630.268 490.127 646.986L380.399 804.996C368.79 821.714 345.827 825.855 329.109 814.246L297.369 792.205C297.202 792.089 296.972 792.13 296.856 792.297C296.74 792.464 296.511 792.506 296.344 792.39L252.084 761.654C242.039 754.679 222.502 766.155 215.526 776.2C202.64 794.757 177.424 799.543 159.204 786.891C140.985 774.239 136.662 748.939 149.548 730.383Z"/>
</mask>
<path d="M394.862 631.98L398.719 629.817L398.221 628.928L397.385 628.347L394.862 631.98ZM376.509 619.235L372.876 616.712L370.354 620.345L373.986 622.867L376.509 619.235ZM378.935 615.741L382.567 618.263L384.506 615.472L382.308 612.88L378.935 615.741ZM445.78 573.117L441.716 574.862L442.216 576.027L443.257 576.749L445.78 573.117ZM447.896 574.587L445.374 578.219L447.921 579.988L450.452 578.196L447.896 574.587ZM329.109 814.246L331.631 810.613L329.109 814.246ZM297.369 792.205L294.847 795.837L297.369 792.205ZM296.344 792.39L293.821 796.022L296.344 792.39ZM252.084 761.654L254.606 758.022L252.084 761.654ZM208.393 716.059C188.105 701.97 160.151 707.361 145.916 727.86L153.181 732.905C164.718 716.292 187.197 712.108 203.348 723.324L208.393 716.059ZM230.698 716.15C228.916 718.717 225.59 720.148 221.116 720.093C216.661 720.038 211.862 718.469 208.393 716.059L203.348 723.324C208.27 726.742 214.788 728.86 221.007 728.937C227.209 729.013 233.917 727.021 237.963 721.195L230.698 716.15ZM244.017 696.971L230.698 716.15L237.963 721.195L251.282 702.016L244.017 696.971ZM236.14 676.102C239.61 678.512 242.756 682.46 244.364 686.616C245.978 690.788 245.799 694.404 244.017 696.971L251.282 702.016C255.327 696.19 254.851 689.208 252.613 683.424C250.368 677.623 246.107 672.256 241.185 668.838L236.14 676.102ZM225.374 613.439C211.138 633.939 215.852 662.014 236.14 676.102L241.185 668.838C225.034 657.622 221.102 635.098 232.639 618.484L225.374 613.439ZM287.85 601.638C267.562 587.549 239.609 592.939 225.374 613.439L232.639 618.484C244.176 601.87 266.655 597.687 282.805 608.903L287.85 601.638ZM298.617 664.301C312.852 643.801 308.138 615.726 287.85 601.638L282.805 608.903C298.956 620.118 302.889 642.643 291.352 659.256L298.617 664.301ZM298.212 690.492C295.284 688.459 293.692 684.492 293.848 679.147C294.002 673.863 295.89 668.227 298.617 664.301L291.352 659.256C287.62 664.63 285.21 671.938 285.007 678.888C284.806 685.776 286.795 693.332 293.167 697.757L298.212 690.492ZM322.44 707.317L298.212 690.492L293.167 697.757L317.395 714.582L322.44 707.317ZM354.425 701.549C347.186 711.974 332.865 714.556 322.44 707.317L317.395 714.582C331.833 724.608 351.664 721.031 361.69 706.594L354.425 701.549ZM392.05 647.368L354.425 701.549L361.69 706.594L399.315 652.412L392.05 647.368ZM391.005 634.143C393.952 639.398 394.217 644.248 392.05 647.368L399.315 652.412C404.302 645.232 402.39 636.362 398.719 629.817L391.005 634.143ZM397.385 628.347L379.031 615.602L373.986 622.867L392.34 635.612L397.385 628.347ZM380.141 621.757L382.567 618.263L375.303 613.218L372.876 616.712L380.141 621.757ZM373.299 564.51C361.511 581.485 362.931 603.708 375.562 618.601L382.308 612.88C372.269 601.043 371.062 583.238 380.563 569.555L373.299 564.51ZM434.76 552.902C414.801 539.041 387.302 544.345 373.299 564.51L380.563 569.555C391.868 553.276 413.893 549.179 429.715 560.167L434.76 552.902ZM449.843 571.371C446.74 564.147 441.658 557.692 434.76 552.902L429.715 560.167C435.208 563.98 439.244 569.108 441.716 574.862L449.843 571.371ZM443.257 576.749L445.374 578.219L450.419 570.954L448.302 569.484L443.257 576.749ZM444.533 571.791C444.749 571.481 445.021 571.204 445.341 570.977L450.452 578.196C450.972 577.827 451.428 577.369 451.798 576.836L444.533 571.791ZM452.213 570.406C449.71 568.668 446.271 569.288 444.533 571.791L451.798 576.836C450.75 578.345 448.677 578.719 447.168 577.671L452.213 570.406ZM483.399 592.063L452.213 570.406L447.168 577.671L478.354 599.327L483.399 592.063ZM493.759 649.508C506.761 630.784 502.123 605.065 483.399 592.063L478.354 599.327C493.066 609.544 496.71 629.752 486.494 644.463L493.759 649.508ZM384.032 807.518L493.759 649.508L486.494 644.463L376.767 802.473L384.032 807.518ZM326.586 817.878C345.31 830.88 371.029 826.242 384.032 807.518L376.767 802.473C366.551 817.185 346.343 820.829 331.631 810.613L326.586 817.878ZM294.847 795.837L326.586 817.878L331.631 810.613L299.892 788.572L294.847 795.837ZM300.489 794.82C299.212 796.659 296.686 797.114 294.847 795.837L299.892 788.572C297.718 787.063 294.733 787.602 293.224 789.775L300.489 794.82ZM293.821 796.022C295.994 797.531 298.98 796.993 300.489 794.82L293.224 789.775C294.501 787.936 297.027 787.48 298.866 788.757L293.821 796.022ZM249.561 765.287L293.821 796.022L298.866 788.757L254.606 758.022L249.561 765.287ZM219.159 778.722C222.12 774.458 228.079 769.542 234.515 766.556C241.232 763.44 246.599 763.23 249.561 765.287L254.606 758.022C247.524 753.104 238.1 755.143 230.793 758.533C223.205 762.053 215.908 767.897 211.894 773.677L219.159 778.722ZM156.682 790.524C176.97 804.612 204.923 799.222 219.159 778.722L211.894 773.677C200.357 790.291 177.878 794.474 161.727 783.259L156.682 790.524ZM145.916 727.86C131.68 748.36 136.394 776.435 156.682 790.524L161.727 783.259C145.576 772.043 141.644 749.519 153.181 732.905L145.916 727.86Z" fill="#FDD05C" mask="url(#path-23-inside-12_0_1)"/>
</g>
<g filter="url(#filter12_f_0_1)">
<mask id="path-25-inside-13_0_1" fill="white">
<path fill-rule="evenodd" clip-rule="evenodd" d="M151.366 731.644C164.252 713.087 189.468 708.3 207.687 720.952C216.08 726.78 230.319 728.326 236.147 719.933L249.466 700.754C255.294 692.362 248.871 679.559 240.479 673.731C222.26 661.079 217.937 635.779 230.823 617.223C243.709 598.666 268.925 593.879 287.145 606.531C305.364 619.183 309.687 644.483 296.801 663.04C290.342 672.34 288.206 688.927 297.507 695.386L321.735 712.21C334.166 720.843 351.242 717.764 359.875 705.332L397.292 651.451C403.279 642.83 396.246 629.351 387.625 623.364C384.602 621.264 381.968 618.81 379.74 616.094L379.032 615.602L379.178 615.392C368.745 602.05 367.809 582.754 378.143 567.873C388.476 552.993 406.883 547.13 423.029 552.245L423.175 552.035L423.882 552.526C427.206 553.665 430.426 555.275 433.449 557.375C436.473 559.474 439.107 561.929 441.335 564.646L485.587 595.375L484.309 597.215C500.024 609.071 503.692 631.329 492.364 647.641L382.217 806.257C370.607 822.975 347.644 827.116 330.926 815.507L299.186 793.466C299.019 793.349 298.789 793.391 298.673 793.558C298.557 793.725 298.327 793.767 298.16 793.651L253.901 762.916C243.856 755.94 224.319 767.416 217.343 777.461C204.457 796.017 179.241 800.804 161.022 788.152C142.802 775.5 138.479 750.2 151.366 731.644Z"/>
</mask>
<path d="M379.74 616.094L383.159 613.289L382.769 612.813L382.262 612.461L379.74 616.094ZM379.032 615.602L375.4 613.08L372.877 616.712L376.51 619.235L379.032 615.602ZM379.178 615.392L382.81 617.915L384.67 615.237L382.662 612.668L379.178 615.392ZM423.029 552.245L421.694 556.461L424.802 557.445L426.662 554.767L423.029 552.245ZM423.175 552.035L425.698 548.403L422.065 545.88L419.543 549.512L423.175 552.035ZM423.882 552.526L421.36 556.158L421.866 556.51L422.449 556.71L423.882 552.526ZM441.335 564.646L437.916 567.45L438.306 567.927L438.812 568.278L441.335 564.646ZM485.587 595.375L489.219 597.898L491.742 594.265L488.109 591.743L485.587 595.375ZM484.309 597.215L480.677 594.693L478.251 598.185L481.646 600.746L484.309 597.215ZM330.926 815.507L328.404 819.139L330.926 815.507ZM299.186 793.466L301.709 789.833L299.186 793.466ZM210.21 717.32C189.922 703.231 161.969 708.622 147.733 729.121L154.998 734.166C166.535 717.552 189.014 713.369 205.165 724.585L210.21 717.32ZM232.515 717.411C230.732 719.978 227.407 721.409 222.933 721.353C218.478 721.298 213.68 719.729 210.21 717.32L205.165 724.585C210.087 728.003 216.605 730.121 222.824 730.197C229.026 730.274 235.734 728.282 239.779 722.456L232.515 717.411ZM245.833 698.232L232.515 717.411L239.779 722.456L253.098 703.276L245.833 698.232ZM237.957 677.363C241.426 679.773 244.573 683.721 246.181 687.877C247.795 692.049 247.616 695.665 245.833 698.232L253.098 703.276C257.144 697.451 256.667 690.469 254.429 684.685C252.185 678.884 247.924 673.517 243.002 670.099L237.957 677.363ZM227.19 614.7C212.955 635.2 217.669 663.275 237.957 677.363L243.002 670.099C226.851 658.883 222.918 636.359 234.455 619.745L227.19 614.7ZM289.667 602.899C269.379 588.81 241.426 594.2 227.19 614.7L234.455 619.745C245.992 603.131 268.472 598.948 284.622 610.164L289.667 602.899ZM300.433 665.562C314.669 645.062 309.955 616.987 289.667 602.899L284.622 610.164C300.773 621.379 304.705 643.903 293.168 660.517L300.433 665.562ZM300.029 691.753C297.101 689.72 295.508 685.753 295.665 680.408C295.819 675.124 297.707 669.488 300.433 665.562L293.168 660.517C289.436 665.891 287.027 673.199 286.824 680.149C286.622 687.037 288.612 694.593 294.984 699.018L300.029 691.753ZM324.257 708.578L300.029 691.753L294.984 699.018L319.212 715.843L324.257 708.578ZM356.243 702.81C349.003 713.235 334.683 715.818 324.257 708.578L319.212 715.843C333.65 725.869 353.482 722.292 363.508 707.855L356.243 702.81ZM393.659 648.929L356.243 702.81L363.508 707.855L400.924 653.974L393.659 648.929ZM385.102 626.996C388.693 629.49 392.063 633.662 393.833 638.068C395.62 642.516 395.477 646.311 393.659 648.929L400.924 653.974C405.093 647.97 404.428 640.715 402.04 634.771C399.635 628.785 395.178 623.225 390.147 619.731L385.102 626.996ZM376.321 618.898C378.805 621.928 381.74 624.661 385.102 626.996L390.147 619.731C387.464 617.868 385.131 615.693 383.159 613.289L376.321 618.898ZM382.262 612.461L381.555 611.97L376.51 619.235L377.218 619.726L382.262 612.461ZM382.665 618.125L382.81 617.915L375.546 612.87L375.4 613.08L382.665 618.125ZM374.51 565.351C363.066 581.831 364.072 603.253 375.694 618.116L382.662 612.668C373.418 600.846 372.552 583.677 381.775 570.396L374.51 565.351ZM424.365 548.029C406.379 542.331 385.954 548.871 374.51 565.351L381.775 570.396C390.998 557.115 407.387 551.928 421.694 556.461L424.365 548.029ZM426.662 554.767L426.808 554.557L419.543 549.512L419.397 549.722L426.662 554.767ZM420.653 555.667L421.36 556.158L426.405 548.893L425.698 548.403L420.653 555.667ZM435.972 553.742C432.609 551.407 429.022 549.612 425.315 548.342L422.449 556.71C425.391 557.717 428.243 559.143 430.927 561.007L435.972 553.742ZM444.754 561.841C442.27 558.811 439.335 556.078 435.972 553.742L430.927 561.007C433.611 562.871 435.944 565.046 437.916 567.45L444.754 561.841ZM438.812 568.278L483.064 599.008L488.109 591.743L443.857 561.013L438.812 568.278ZM481.954 592.853L480.677 594.693L487.941 599.738L489.219 597.898L481.954 592.853ZM495.997 650.164C508.684 631.893 504.576 606.965 486.972 593.685L481.646 600.746C495.472 611.177 498.7 630.765 488.732 645.119L495.997 650.164ZM385.849 808.78L495.997 650.164L488.732 645.119L378.584 803.735L385.849 808.78ZM328.404 819.139C347.127 832.142 372.847 827.503 385.849 808.78L378.584 803.735C368.368 818.446 348.16 822.091 333.449 811.874L328.404 819.139ZM296.664 797.098L328.404 819.139L333.449 811.874L301.709 789.833L296.664 797.098ZM302.306 796.081C301.029 797.92 298.502 798.375 296.664 797.098L301.709 789.833C299.535 788.324 296.55 788.862 295.041 791.036L302.306 796.081ZM295.638 797.283C297.811 798.792 300.796 798.254 302.306 796.081L295.041 791.036C296.318 789.197 298.844 788.741 300.683 790.018L295.638 797.283ZM251.378 766.548L295.638 797.283L300.683 790.018L256.423 759.283L251.378 766.548ZM220.976 779.983C223.937 775.719 229.896 770.803 236.332 767.817C243.049 764.701 248.416 764.491 251.378 766.548L256.423 759.283C249.341 754.365 239.917 756.404 232.61 759.794C225.022 763.314 217.725 769.158 213.711 774.938L220.976 779.983ZM158.499 791.785C178.787 805.873 206.74 800.483 220.976 779.983L213.711 774.938C202.174 791.552 179.695 795.735 163.544 784.52L158.499 791.785ZM147.733 729.121C133.498 749.621 138.211 777.696 158.499 791.785L163.544 784.52C147.394 773.304 143.461 750.78 154.998 734.166L147.733 729.121Z" fill="#FDD05C" mask="url(#path-25-inside-13_0_1)"/>
</g>
<defs>
<filter id="filter0_f_0_1" x="237.434" y="79.9942" width="321.53" height="332.653" filterUnits="userSpaceOnUse" color-interpolation-filters="sRGB">
<feFlood flood-opacity="0" result="BackgroundImageFix"/>
<feBlend mode="normal" in="SourceGraphic" in2="BackgroundImageFix" result="shape"/>
<feGaussianBlur stdDeviation="4.48205" result="effect1_foregroundBlur_0_1"/>
</filter>
<filter id="filter1_f_0_1" x="231.545" y="79.9942" width="321.53" height="332.653" filterUnits="userSpaceOnUse" color-interpolation-filters="sRGB">
<feFlood flood-opacity="0" result="BackgroundImageFix"/>
<feBlend mode="normal" in="SourceGraphic" in2="BackgroundImageFix" result="shape"/>
<feGaussianBlur stdDeviation="4.48205" result="effect1_foregroundBlur_0_1"/>
</filter>
<filter id="filter2_f_0_1" x="239.855" y="86.341" width="308.836" height="319.959" filterUnits="userSpaceOnUse" color-interpolation-filters="sRGB">
<feFlood flood-opacity="0" result="BackgroundImageFix"/>
<feBlend mode="normal" in="SourceGraphic" in2="BackgroundImageFix" result="shape"/>
<feGaussianBlur stdDeviation="1.30863" result="effect1_foregroundBlur_0_1"/>
</filter>
<filter id="filter3_f_0_1" x="-232.677" y="5.366" width="436.2" height="209.246" filterUnits="userSpaceOnUse" color-interpolation-filters="sRGB">
<feFlood flood-opacity="0" result="BackgroundImageFix"/>
<feBlend mode="normal" in="SourceGraphic" in2="BackgroundImageFix" result="shape"/>
<feGaussianBlur stdDeviation="3.83861" result="effect1_foregroundBlur_0_1"/>
</filter>
<filter id="filter4_f_0_1" x="-232.655" y="0.322784" width="436.201" height="209.246" filterUnits="userSpaceOnUse" color-interpolation-filters="sRGB">
<feFlood flood-opacity="0" result="BackgroundImageFix"/>
<feBlend mode="normal" in="SourceGraphic" in2="BackgroundImageFix" result="shape"/>
<feGaussianBlur stdDeviation="3.83861" result="effect1_foregroundBlur_0_1"/>
</filter>
<filter id="filter5_f_0_1" x="-227.226" y="7.43963" width="425.329" height="198.375" filterUnits="userSpaceOnUse" color-interpolation-filters="sRGB">
<feFlood flood-opacity="0" result="BackgroundImageFix"/>
<feBlend mode="normal" in="SourceGraphic" in2="BackgroundImageFix" result="shape"/>
<feGaussianBlur stdDeviation="1.12076" result="effect1_foregroundBlur_0_1"/>
</filter>
<filter id="filter6_f_0_1" x="-76.0726" y="490.795" width="250.895" height="172.344" filterUnits="userSpaceOnUse" color-interpolation-filters="sRGB">
<feFlood flood-opacity="0" result="BackgroundImageFix"/>
<feBlend mode="normal" in="SourceGraphic" in2="BackgroundImageFix" result="shape"/>
<feGaussianBlur stdDeviation="5.04886" result="effect1_foregroundBlur_0_1"/>
</filter>
<filter id="filter7_f_0_1" x="-82.7059" y="490.795" width="250.895" height="172.344" filterUnits="userSpaceOnUse" color-interpolation-filters="sRGB">
<feFlood flood-opacity="0" result="BackgroundImageFix"/>
<feBlend mode="normal" in="SourceGraphic" in2="BackgroundImageFix" result="shape"/>
<feGaussianBlur stdDeviation="5.04886" result="effect1_foregroundBlur_0_1"/>
</filter>
<filter id="filter8_f_0_1" x="-73.345" y="497.945" width="236.596" height="158.045" filterUnits="userSpaceOnUse" color-interpolation-filters="sRGB">
<feFlood flood-opacity="0" result="BackgroundImageFix"/>
<feBlend mode="normal" in="SourceGraphic" in2="BackgroundImageFix" result="shape"/>
<feGaussianBlur stdDeviation="1.47412" result="effect1_foregroundBlur_0_1"/>
</filter>
<filter id="filter9_f_0_1" x="-73.345" y="497.945" width="236.596" height="158.045" filterUnits="userSpaceOnUse" color-interpolation-filters="sRGB">
<feFlood flood-opacity="0" result="BackgroundImageFix"/>
<feBlend mode="normal" in="SourceGraphic" in2="BackgroundImageFix" result="shape"/>
<feGaussianBlur stdDeviation="1.47412" result="effect1_foregroundBlur_0_1"/>
</filter>
<filter id="filter10_f_0_1" x="137.478" y="542.016" width="373.941" height="292.697" filterUnits="userSpaceOnUse" color-interpolation-filters="sRGB">
<feFlood flood-opacity="0" result="BackgroundImageFix"/>
<feBlend mode="normal" in="SourceGraphic" in2="BackgroundImageFix" result="shape"/>
<feGaussianBlur stdDeviation="5.04886" result="effect1_foregroundBlur_0_1"/>
</filter>
<filter id="filter11_f_0_1" x="132.03" y="539.493" width="374.781" height="291.436" filterUnits="userSpaceOnUse" color-interpolation-filters="sRGB">
<feFlood flood-opacity="0" result="BackgroundImageFix"/>
<feBlend mode="normal" in="SourceGraphic" in2="BackgroundImageFix" result="shape"/>
<feGaussianBlur stdDeviation="5.04886" result="effect1_foregroundBlur_0_1"/>
</filter>
<filter id="filter12_f_0_1" x="140.996" y="547.483" width="360.902" height="277.558" filterUnits="userSpaceOnUse" color-interpolation-filters="sRGB">
<feFlood flood-opacity="0" result="BackgroundImageFix"/>
<feBlend mode="normal" in="SourceGraphic" in2="BackgroundImageFix" result="shape"/>
<feGaussianBlur stdDeviation="1.47412" result="effect1_foregroundBlur_0_1"/>
</filter>
</defs>
</svg>
