<svg width="390" height="844" viewBox="0 0 390 844" fill="none" xmlns="http://www.w3.org/2000/svg">
<g filter="url(#filter0_d_831_2)">
<rect x="390" y="844" width="390" height="844" transform="rotate(180 390 844)" fill="url(#paint0_linear_831_2)" fill-opacity="0.2" shape-rendering="crispEdges"/>
</g>
<g filter="url(#filter1_f_831_2)">
<mask id="path-2-inside-1_831_2" fill="white">
<path fill-rule="evenodd" clip-rule="evenodd" d="M277.545 699.603C262.666 699.603 250.605 687.828 250.605 673.302C250.605 658.776 262.666 647 277.545 647C292.424 647 304.485 658.776 304.485 673.302C304.485 680.875 311.114 695.812 318.687 695.812H386.61C399.696 695.812 410.305 685.204 410.305 672.117V670.695C410.305 657.609 420.914 647 434 647H441.461C454.548 647 465.156 657.609 465.156 670.695L465.156 832.296C465.156 845.383 454.548 855.992 441.461 855.992H434C420.914 855.992 410.305 845.383 410.305 832.296V826.136C410.305 813.049 399.696 802.44 386.61 802.44H374.167C361.08 802.44 350.472 813.049 350.472 826.136V851.252C350.472 864.339 339.863 874.947 326.776 874.947H268.96C255.874 874.947 245.265 864.339 245.265 851.252L245.265 776.165C245.265 764.504 254.719 755.05 266.38 755.05C278.042 755.05 287.496 745.596 287.496 733.934V707.931C287.496 703.032 282.444 699.603 277.545 699.603Z"/>
</mask>
<path d="M253.448 673.302C253.448 686.193 264.172 696.76 277.545 696.76V702.447C261.161 702.447 247.761 689.462 247.761 673.302H253.448ZM277.545 649.843C264.172 649.843 253.448 660.41 253.448 673.302H247.761C247.761 657.141 261.161 644.157 277.545 644.157V649.843ZM301.642 673.302C301.642 660.41 290.918 649.843 277.545 649.843V644.157C293.93 644.157 307.329 657.141 307.329 673.302H301.642ZM318.687 692.969H386.61V698.656H318.687V692.969ZM407.461 672.117V670.695H413.148V672.117H407.461ZM434 644.157H441.461V649.844H434V644.157ZM468 670.695L468 832.296H462.313L462.313 670.695H468ZM441.461 858.835H434V853.148H441.461V858.835ZM407.461 832.296V826.136H413.148V832.296H407.461ZM386.61 805.284H374.167V799.597H386.61V805.284ZM353.315 826.136V851.252H347.628V826.136H353.315ZM326.776 877.791H268.96V872.104H326.776V877.791ZM242.422 851.252L242.422 776.165H248.108L248.108 851.252H242.422ZM284.652 733.934V707.931H290.339V733.934H284.652ZM284.652 707.931C284.652 706.538 283.95 705.222 282.604 704.168C281.237 703.097 279.369 702.447 277.545 702.447V696.76C280.62 696.76 283.728 697.824 286.112 699.692C288.516 701.576 290.339 704.424 290.339 707.931H284.652ZM266.38 752.206C276.472 752.206 284.652 744.026 284.652 733.934H290.339C290.339 747.167 279.613 757.893 266.38 757.893V752.206ZM242.422 776.165C242.422 762.933 253.148 752.206 266.38 752.206V757.893C256.289 757.893 248.108 766.074 248.108 776.165H242.422ZM268.96 877.791C254.303 877.791 242.422 865.909 242.422 851.252H248.108C248.108 862.768 257.444 872.104 268.96 872.104V877.791ZM353.315 851.252C353.315 865.909 341.433 877.791 326.776 877.791V872.104C338.293 872.104 347.628 862.768 347.628 851.252H353.315ZM374.167 805.284C362.651 805.284 353.315 814.62 353.315 826.136H347.628C347.628 811.479 359.51 799.597 374.167 799.597V805.284ZM407.461 826.136C407.461 814.62 398.126 805.284 386.61 805.284V799.597C401.267 799.597 413.148 811.479 413.148 826.136H407.461ZM434 858.835C419.343 858.835 407.461 846.953 407.461 832.296H413.148C413.148 843.812 422.484 853.148 434 853.148V858.835ZM468 832.296C468 846.953 456.118 858.835 441.461 858.835V853.148C452.977 853.148 462.313 843.812 462.313 832.296H468ZM441.461 644.157C456.118 644.157 468 656.038 468 670.695H462.313C462.313 659.179 452.977 649.844 441.461 649.844V644.157ZM407.461 670.695C407.461 656.038 419.343 644.157 434 644.157V649.844C422.484 649.844 413.148 659.179 413.148 670.695H407.461ZM386.61 692.969C398.126 692.969 407.461 683.633 407.461 672.117H413.148C413.148 686.774 401.266 698.656 386.61 698.656V692.969ZM307.329 673.302C307.329 676.468 308.786 681.618 311.231 686.015C312.437 688.183 313.796 690.004 315.176 691.247C316.572 692.504 317.756 692.969 318.687 692.969V698.656C315.832 698.656 313.347 697.253 311.37 695.473C309.378 693.679 307.659 691.292 306.261 688.779C303.499 683.814 301.642 677.709 301.642 673.302H307.329Z" fill="#377DC9" mask="url(#path-2-inside-1_831_2)"/>
</g>
<g filter="url(#filter2_f_831_2)">
<mask id="path-4-inside-2_831_2" fill="white">
<path fill-rule="evenodd" clip-rule="evenodd" d="M460.891 670.695C460.891 657.608 450.282 647 437.196 647H429.735C416.648 647 406.04 657.608 406.04 670.695V672.117C406.04 685.203 395.431 695.812 382.345 695.812H314.422C306.849 695.812 300.22 680.875 300.22 673.302C300.22 658.776 288.159 647 273.28 647C258.401 647 246.34 658.776 246.34 673.302C246.34 687.827 258.401 699.603 273.28 699.603C278.18 699.603 283.231 703.031 283.231 707.931V733.934C283.231 745.596 273.777 755.05 262.116 755.05C250.454 755.05 241 764.504 241 776.165L241 851.252C241 864.339 251.609 874.947 264.695 874.947H322.511C335.598 874.947 346.207 864.339 346.207 851.252V826.135C346.207 813.049 356.815 802.44 369.902 802.44H382.345C395.431 802.44 406.04 813.049 406.04 826.136V832.296C406.04 845.382 416.648 855.991 429.735 855.991H437.196C450.282 855.991 460.891 845.382 460.891 832.296L460.891 670.695Z"/>
</mask>
<path d="M429.735 644.156H437.196V649.843H429.735V644.156ZM403.196 672.117V670.695H408.883V672.117H403.196ZM314.422 692.969H382.345V698.656H314.422V692.969ZM297.377 673.302C297.377 660.41 286.653 649.843 273.28 649.843V644.156C289.664 644.156 303.064 657.141 303.064 673.302H297.377ZM273.28 649.843C259.907 649.843 249.183 660.41 249.183 673.302H243.496C243.496 657.141 256.896 644.156 273.28 644.156V649.843ZM249.183 673.302C249.183 686.193 259.907 696.76 273.28 696.76V702.447C256.896 702.447 243.496 689.462 243.496 673.302H249.183ZM280.388 733.934V707.931H286.075V733.934H280.388ZM238.157 851.252L238.157 776.165H243.843L243.843 851.252H238.157ZM322.511 877.791H264.695V872.104H322.511V877.791ZM349.05 826.135V851.252H343.363V826.135H349.05ZM382.345 805.284H369.902V799.597H382.345V805.284ZM403.196 832.296V826.136H408.883V832.296H403.196ZM437.196 858.835H429.735V853.148H437.196V858.835ZM463.735 670.695L463.735 832.296H458.048L458.048 670.695H463.735ZM437.196 853.148C448.712 853.148 458.048 843.812 458.048 832.296H463.735C463.735 846.953 451.853 858.835 437.196 858.835V853.148ZM408.883 832.296C408.883 843.812 418.219 853.148 429.735 853.148V858.835C415.078 858.835 403.196 846.953 403.196 832.296H408.883ZM262.116 757.893C252.024 757.893 243.843 766.074 243.843 776.165H238.157C238.157 762.933 248.883 752.206 262.116 752.206V757.893ZM286.075 733.934C286.075 747.166 275.348 757.893 262.116 757.893V752.206C272.207 752.206 280.388 744.026 280.388 733.934H286.075ZM273.28 696.76C276.355 696.76 279.463 697.824 281.847 699.692C284.252 701.576 286.075 704.424 286.075 707.931H280.388C280.388 706.538 279.685 705.222 278.339 704.168C276.972 703.097 275.104 702.447 273.28 702.447V696.76ZM382.345 799.597C397.001 799.597 408.883 811.479 408.883 826.136H403.196C403.196 814.619 393.861 805.284 382.345 805.284V799.597ZM314.422 698.656C311.567 698.656 309.082 697.253 307.105 695.473C305.113 693.678 303.394 691.292 301.996 688.779C299.234 683.814 297.377 677.709 297.377 673.302H303.064C303.064 676.468 304.521 681.618 306.966 686.015C308.172 688.183 309.531 690.004 310.911 691.247C312.307 692.504 313.491 692.969 314.422 692.969V698.656ZM343.363 826.135C343.363 811.479 355.245 799.597 369.902 799.597V805.284C358.386 805.284 349.05 814.619 349.05 826.135H343.363ZM408.883 672.117C408.883 686.774 397.001 698.656 382.345 698.656V692.969C393.861 692.969 403.196 683.633 403.196 672.117H408.883ZM322.511 872.104C334.028 872.104 343.363 862.768 343.363 851.252H349.05C349.05 865.909 337.168 877.791 322.511 877.791V872.104ZM437.196 644.156C451.853 644.156 463.735 656.038 463.735 670.695H458.048C458.048 659.179 448.712 649.843 437.196 649.843V644.156ZM243.843 851.252C243.843 862.768 253.179 872.104 264.695 872.104V877.791C250.038 877.791 238.157 865.909 238.157 851.252H243.843ZM429.735 649.843C418.219 649.843 408.883 659.179 408.883 670.695H403.196C403.196 656.038 415.078 644.156 429.735 644.156V649.843Z" fill="#377DC9" mask="url(#path-4-inside-2_831_2)"/>
</g>
<g filter="url(#filter3_f_831_2)">
<mask id="path-6-inside-3_831_2" fill="white">
<path fill-rule="evenodd" clip-rule="evenodd" d="M462.313 670.695C462.313 657.608 451.704 647 438.618 647H431.157C418.07 647 407.462 657.608 407.462 670.695V672.117C407.462 685.203 396.853 695.812 383.766 695.812H315.844C308.271 695.812 301.642 680.875 301.642 673.302C301.642 658.776 289.581 647 274.702 647C259.823 647 247.762 658.776 247.762 673.302C247.762 687.827 259.823 699.603 274.702 699.603C279.601 699.603 284.653 703.031 284.653 707.931V733.934C284.653 745.596 275.199 755.05 263.537 755.05C251.876 755.05 242.422 764.504 242.422 776.165L242.422 851.252C242.422 864.339 253.03 874.947 266.117 874.947H323.933C337.02 874.947 347.628 864.339 347.628 851.252V826.135C347.628 813.049 358.237 802.44 371.323 802.44H383.766C396.853 802.44 407.462 813.049 407.462 826.136V832.296C407.462 845.382 418.07 855.991 431.157 855.991H438.618C451.704 855.991 462.313 845.382 462.313 832.296L462.313 670.695Z"/>
</mask>
<path d="M431.157 644.63H438.618V649.369H431.157V644.63ZM405.092 672.117V670.695H409.831V672.117H405.092ZM315.844 693.443H383.766V698.182H315.844V693.443ZM299.273 673.302C299.273 660.137 288.326 649.369 274.702 649.369V644.63C290.835 644.63 304.012 657.414 304.012 673.302H299.273ZM274.702 649.369C261.078 649.369 250.131 660.137 250.131 673.302H245.392C245.392 657.414 258.568 644.63 274.702 644.63V649.369ZM250.131 673.302C250.131 686.466 261.078 697.234 274.702 697.234V701.973C258.568 701.973 245.392 689.189 245.392 673.302H250.131ZM282.283 733.934V707.931H287.022V733.934H282.283ZM240.052 851.252L240.052 776.165H244.791L244.791 851.252H240.052ZM323.933 877.317H266.117V872.578H323.933V877.317ZM349.998 826.135V851.252H345.259V826.135H349.998ZM383.766 804.81H371.323V800.071H383.766V804.81ZM405.092 832.296V826.136H409.831V832.296H405.092ZM438.618 858.361H431.157V853.622H438.618V858.361ZM464.683 670.695L464.683 832.296H459.943L459.943 670.695H464.683ZM438.618 853.622C450.396 853.622 459.943 844.074 459.943 832.296H464.683C464.683 846.691 453.013 858.361 438.618 858.361V853.622ZM409.831 832.296C409.831 844.074 419.379 853.622 431.157 853.622V858.361C416.762 858.361 405.092 846.691 405.092 832.296H409.831ZM263.537 757.419C253.184 757.419 244.791 765.812 244.791 776.165H240.052C240.052 763.195 250.567 752.68 263.537 752.68V757.419ZM287.022 733.934C287.022 746.905 276.508 757.419 263.537 757.419V752.68C273.891 752.68 282.283 744.287 282.283 733.934H287.022ZM274.702 697.234C277.673 697.234 280.677 698.263 282.976 700.065C285.293 701.88 287.022 704.601 287.022 707.931H282.283C282.283 706.362 281.487 704.918 280.053 703.795C278.601 702.657 276.63 701.973 274.702 701.973V697.234ZM383.766 800.071C398.162 800.071 409.831 811.74 409.831 826.136H405.092C405.092 814.358 395.544 804.81 383.766 804.81V800.071ZM315.844 698.182C313.149 698.182 310.773 696.857 308.844 695.121C306.903 693.372 305.214 691.033 303.832 688.549C301.097 683.631 299.273 677.605 299.273 673.302H304.012C304.012 676.571 305.502 681.801 307.974 686.245C309.196 688.442 310.584 690.31 312.016 691.599C313.46 692.9 314.753 693.443 315.844 693.443V698.182ZM345.259 826.135C345.259 811.74 356.928 800.071 371.323 800.071V804.81C359.546 804.81 349.998 814.358 349.998 826.135H345.259ZM409.831 672.117C409.831 686.512 398.161 698.182 383.766 698.182V693.443C395.544 693.443 405.092 683.895 405.092 672.117H409.831ZM323.933 872.578C335.711 872.578 345.259 863.03 345.259 851.252H349.998C349.998 865.647 338.328 877.317 323.933 877.317V872.578ZM438.618 644.63C453.013 644.63 464.683 656.3 464.683 670.695H459.943C459.943 658.917 450.396 649.369 438.618 649.369V644.63ZM244.791 851.252C244.791 863.03 254.339 872.578 266.117 872.578V877.317C251.722 877.317 240.052 865.647 240.052 851.252H244.791ZM431.157 649.369C419.379 649.369 409.831 658.917 409.831 670.695H405.092C405.092 656.3 416.762 644.63 431.157 644.63V649.369Z" fill="#377DC9" mask="url(#path-6-inside-3_831_2)"/>
</g>
<g filter="url(#filter4_f_831_2)">
<mask id="path-8-inside-4_831_2" fill="white">
<path fill-rule="evenodd" clip-rule="evenodd" d="M121.552 241.68C121.552 241.695 121.564 241.707 121.578 241.708C133.437 242.555 142.809 253.044 142.809 265.857C142.809 279.225 132.609 290.062 120.026 290.062C110.976 290.062 103.158 284.456 99.4824 276.333C98.41 273.964 96.2032 272.163 93.6023 272.163H61.8614C58.7232 272.163 56.1792 274.707 56.1792 277.845V326.792C56.1792 330.919 60.5797 333.748 64.7052 333.677C64.8301 333.675 64.9553 333.674 65.0806 333.674C77.663 333.674 87.8629 344.511 87.8629 357.879C87.8629 371.247 77.663 382.084 65.0806 382.084C52.4983 382.084 42.2983 371.247 42.2983 357.879C42.2983 356.573 42.3957 355.291 42.5832 354.041C43.2457 349.623 40.305 344.468 35.8373 344.468L-102.76 344.468C-115.985 344.468 -126.706 333.747 -126.706 320.522V315.879C-126.706 312.741 -129.25 310.197 -132.388 310.197H-156.318C-159.456 310.197 -162 307.653 -162 304.514V247.335C-162 244.197 -159.456 241.653 -156.318 241.653H10.9009L48.9598 241.653H119.99C120.002 241.653 120.014 241.653 120.026 241.653C120.038 241.653 120.051 241.653 120.063 241.653H121.525C121.54 241.653 121.552 241.665 121.552 241.68Z"/>
</mask>
<path d="M10.9009 241.653L10.9009 244.088H10.9009V241.653ZM48.9598 241.653L48.9598 239.218H48.9598V241.653ZM99.4824 276.333L97.2638 277.337L99.4824 276.333ZM42.5832 354.041L44.9915 354.402L42.5832 354.041ZM64.7052 333.677L64.6634 331.243L64.7052 333.677ZM121.578 241.708L121.752 239.279L121.578 241.708ZM121.752 239.279C134.999 240.226 145.244 251.883 145.244 265.857H140.373C140.373 254.204 131.875 244.885 121.405 244.137L121.752 239.279ZM145.244 265.857C145.244 280.429 134.09 292.497 120.026 292.497V287.627C131.127 287.627 140.373 278.021 140.373 265.857H145.244ZM120.026 292.497C109.923 292.497 101.293 286.24 97.2638 277.337L101.701 275.329C105.024 282.672 112.029 287.627 120.026 287.627V292.497ZM61.8614 269.728H93.6023V274.598H61.8614V269.728ZM53.744 326.792V277.845H58.6144V326.792H53.744ZM65.0806 336.109C64.9692 336.109 64.858 336.11 64.747 336.112L64.6634 331.243C64.8023 331.24 64.9413 331.239 65.0806 331.239V336.109ZM85.4277 357.879C85.4277 345.715 76.1812 336.109 65.0806 336.109V331.239C79.1447 331.239 90.2982 343.307 90.2982 357.879H85.4277ZM65.0806 379.649C76.1812 379.649 85.4277 370.043 85.4277 357.879H90.2982C90.2982 372.451 79.1447 384.519 65.0806 384.519V379.649ZM44.7335 357.879C44.7335 370.043 53.9801 379.649 65.0806 379.649V384.519C51.0165 384.519 39.8631 372.451 39.8631 357.879H44.7335ZM44.9915 354.402C44.8219 355.533 44.7335 356.694 44.7335 357.879H39.8631C39.8631 356.452 39.9695 355.049 40.1749 353.68L44.9915 354.402ZM-102.76 342.033L35.8373 342.033V346.904L-102.76 346.904V342.033ZM-124.271 320.522C-124.271 332.402 -114.64 342.033 -102.76 342.033V346.904C-117.33 346.904 -129.141 335.092 -129.141 320.522H-124.271ZM-124.271 315.879V320.522H-129.141V315.879H-124.271ZM-156.318 307.761H-132.388V312.632H-156.318V307.761ZM-159.565 247.335V304.514H-164.435V247.335L-159.565 247.335ZM10.9009 244.088H-156.318V239.218H10.9009V244.088ZM48.9598 244.088L10.9009 244.088L10.9009 239.218L48.9598 239.218L48.9598 244.088ZM119.99 244.088H48.9598V239.218H119.99L119.99 244.088ZM119.99 239.218C119.994 239.218 119.999 239.217 120.005 239.217C120.011 239.217 120.018 239.217 120.026 239.217L120.026 244.088C120.022 244.088 120.017 244.088 120.011 244.088C120.005 244.088 119.998 244.088 119.99 244.088L119.99 239.218ZM120.026 239.217C120.034 239.217 120.042 239.217 120.048 239.217C120.054 239.217 120.059 239.218 120.063 239.218L120.063 244.088C120.055 244.088 120.047 244.088 120.042 244.088C120.035 244.088 120.031 244.088 120.026 244.088L120.026 239.217ZM121.525 244.088H120.063L120.063 239.218H121.525L121.525 244.088ZM-129.141 315.879C-129.141 314.085 -130.595 312.632 -132.388 312.632V307.761C-127.905 307.761 -124.271 311.396 -124.271 315.879H-129.141ZM-164.435 247.335C-164.435 242.852 -160.801 239.218 -156.318 239.218V244.088C-158.111 244.088 -159.565 245.542 -159.565 247.335L-164.435 247.335ZM61.8614 274.598C60.0681 274.598 58.6144 276.052 58.6144 277.845H53.744C53.744 273.362 57.3783 269.728 61.8614 269.728V274.598ZM-156.318 312.632C-160.801 312.632 -164.435 308.997 -164.435 304.514H-159.565C-159.565 306.308 -158.111 307.761 -156.318 307.761V312.632ZM97.2638 277.337C96.4804 275.606 95.0151 274.598 93.6023 274.598V269.728C97.3912 269.728 100.34 272.321 101.701 275.329L97.2638 277.337ZM121.525 239.218C122.885 239.218 123.988 240.32 123.988 241.68H119.117C119.117 243.01 120.195 244.088 121.525 244.088L121.525 239.218ZM40.1749 353.68C40.4131 352.091 39.9964 350.3 39.0995 348.936C38.2129 347.588 37.0459 346.904 35.8373 346.904V342.033C39.0965 342.033 41.6336 343.926 43.1686 346.26C44.6934 348.578 45.4158 351.572 44.9915 354.402L40.1749 353.68ZM58.6144 326.792C58.6144 327.914 59.1988 328.991 60.3582 329.862C61.5352 330.747 63.1357 331.269 64.6634 331.243L64.747 336.112C62.1492 336.157 59.4867 335.3 57.4321 333.756C55.3598 332.198 53.744 329.797 53.744 326.792H58.6144ZM121.405 244.137C120.131 244.046 119.117 242.987 119.117 241.68H123.988C123.988 240.403 122.997 239.368 121.752 239.279L121.405 244.137Z" fill="#F22828" mask="url(#path-8-inside-4_831_2)"/>
</g>
<g filter="url(#filter5_f_831_2)">
<mask id="path-10-inside-5_831_2" fill="white">
<path fill-rule="evenodd" clip-rule="evenodd" d="M121.569 238.028C121.569 238.042 121.58 238.054 121.594 238.055C133.453 238.903 142.825 249.391 142.825 262.205C142.825 275.573 132.625 286.41 120.043 286.41C110.993 286.41 103.175 280.803 99.4989 272.68C98.4266 270.311 96.2197 268.51 93.6189 268.51H61.8776C58.7394 268.51 56.1954 271.054 56.1954 274.192V323.14C56.1954 327.266 60.5959 330.096 64.7215 330.025C64.8464 330.023 64.9715 330.022 65.0969 330.022C77.6792 330.022 87.8792 340.859 87.8792 354.226C87.8792 367.594 77.6792 378.431 65.0969 378.431C52.5145 378.431 42.3146 367.594 42.3146 354.226C42.3146 352.92 42.4119 351.638 42.5994 350.388C43.262 345.97 40.3213 340.815 35.8535 340.815L-102.743 340.815C-115.969 340.815 -126.69 330.094 -126.69 316.869V312.226C-126.69 309.088 -129.234 306.544 -132.372 306.544H-156.301C-159.44 306.544 -161.984 304 -161.984 300.862V243.682C-161.984 240.544 -159.44 238 -156.301 238L-126.69 238L56.1954 238L121.541 238C121.556 238 121.569 238.012 121.569 238.028Z"/>
</mask>
<path d="M-126.69 238V235.565V238ZM56.1954 238V235.565V238ZM121.541 238L121.541 235.565L121.541 238ZM-156.301 238V240.435V238ZM64.7215 330.025L64.7632 332.46L64.7215 330.025ZM121.594 238.055L121.768 235.626L121.594 238.055ZM121.768 235.626C135.015 236.573 145.26 248.231 145.26 262.205H140.39C140.39 250.551 131.891 241.233 121.421 240.484L121.768 235.626ZM145.26 262.205C145.26 276.777 134.107 288.845 120.043 288.845V283.974C131.143 283.974 140.39 274.369 140.39 262.205H145.26ZM120.043 288.845C109.94 288.845 101.309 282.587 97.2803 273.684L101.718 271.676C105.04 279.019 112.045 283.974 120.043 283.974V288.845ZM61.8776 266.075H93.6189V270.946H61.8776V266.075ZM53.7602 323.14V274.192H58.6306V323.14H53.7602ZM65.0969 332.457C64.9854 332.457 64.8742 332.458 64.7632 332.46L64.6797 327.59C64.8185 327.588 64.9576 327.586 65.0969 327.586V332.457ZM85.444 354.226C85.444 342.062 76.1974 332.457 65.0969 332.457V327.586C79.161 327.586 90.3144 339.655 90.3144 354.226H85.444ZM65.0969 375.996C76.1974 375.996 85.444 366.39 85.444 354.226H90.3144C90.3144 368.798 79.161 380.866 65.0969 380.866V375.996ZM44.7498 354.226C44.7498 366.39 53.9963 375.996 65.0969 375.996V380.866C51.0328 380.866 39.8793 368.798 39.8793 354.226H44.7498ZM45.0077 350.749C44.8381 351.88 44.7498 353.041 44.7498 354.226H39.8793C39.8793 352.799 39.9858 351.396 40.1911 350.027L45.0077 350.749ZM-102.743 338.38L35.8535 338.38V343.251L-102.743 343.251V338.38ZM-124.254 316.869C-124.254 328.749 -114.624 338.38 -102.743 338.38V343.251C-117.314 343.251 -129.125 331.439 -129.125 316.869H-124.254ZM-124.254 312.226V316.869H-129.125V312.226H-124.254ZM-156.301 304.109H-132.372V308.979H-156.301V304.109ZM-159.548 243.682V300.862H-164.419V243.682L-159.548 243.682ZM-126.69 240.435L-156.301 240.435V235.565L-126.69 235.565V240.435ZM56.1954 240.435L-126.69 240.435V235.565L56.1954 235.565V240.435ZM121.541 240.435L56.1954 240.435L56.1954 235.565L121.541 235.565L121.541 240.435ZM121.541 235.565C122.901 235.565 124.004 236.667 124.004 238.028H119.133C119.133 239.357 120.211 240.435 121.541 240.435L121.541 235.565ZM-129.125 312.226C-129.125 310.433 -130.579 308.979 -132.372 308.979V304.109C-127.889 304.109 -124.254 307.743 -124.254 312.226H-129.125ZM-164.419 243.682C-164.419 239.199 -160.785 235.565 -156.301 235.565V240.435C-158.095 240.435 -159.548 241.889 -159.548 243.682L-164.419 243.682ZM61.8776 270.946C60.0844 270.946 58.6306 272.399 58.6306 274.192H53.7602C53.7602 269.709 57.3945 266.075 61.8776 266.075V270.946ZM-156.301 308.979C-160.785 308.979 -164.419 305.345 -164.419 300.862H-159.548C-159.548 302.655 -158.095 304.109 -156.301 304.109V308.979ZM97.2803 273.684C96.497 271.954 95.0316 270.946 93.6189 270.946V266.075C97.4078 266.075 100.356 268.668 101.718 271.676L97.2803 273.684ZM40.1911 350.027C40.4293 348.438 40.0127 346.647 39.1158 345.283C38.2292 343.935 37.0621 343.251 35.8535 343.251V338.38C39.1127 338.38 41.6499 340.273 43.1849 342.607C44.7097 344.925 45.4321 347.919 45.0077 350.749L40.1911 350.027ZM58.6306 323.14C58.6306 324.261 59.215 325.338 60.3744 326.209C61.5514 327.094 63.1519 327.616 64.6797 327.59L64.7632 332.46C62.1654 332.504 59.5029 331.647 57.4483 330.103C55.376 328.546 53.7602 326.144 53.7602 323.14H58.6306ZM121.421 240.484C120.147 240.393 119.133 239.335 119.133 238.028H124.004C124.004 236.75 123.013 235.715 121.768 235.626L121.421 240.484Z" fill="#F22828" mask="url(#path-10-inside-5_831_2)"/>
</g>
<g filter="url(#filter6_f_831_2)">
<mask id="path-12-inside-6_831_2" fill="white">
<path fill-rule="evenodd" clip-rule="evenodd" d="M121.563 239.245C121.563 239.26 121.574 239.272 121.589 239.273C133.447 240.12 142.819 250.609 142.819 263.422C142.819 276.79 132.619 287.627 120.037 287.627C110.987 287.627 103.169 282.02 99.4931 273.898C98.4208 271.529 96.2139 269.728 93.6131 269.728H61.8717C58.7336 269.728 56.1896 272.272 56.1896 275.41V324.357C56.1896 328.484 60.5902 331.313 64.7157 331.242C64.8407 331.24 64.9659 331.239 65.0914 331.239C77.6737 331.239 87.8737 342.076 87.8737 355.444C87.8737 368.812 77.6737 379.649 65.0914 379.649C52.5091 379.649 42.3091 368.812 42.3091 355.444C42.3091 354.138 42.4064 352.856 42.5939 351.606C43.2565 347.187 40.3158 342.033 35.8481 342.033L-102.749 342.033C-115.974 342.033 -126.696 331.312 -126.696 318.087V313.444C-126.696 310.305 -129.24 307.761 -132.378 307.761H-156.307C-159.445 307.761 -161.989 305.217 -161.989 302.079V244.9C-161.989 241.762 -159.445 239.218 -156.307 239.218L-126.696 239.218L56.1896 239.218L120 239.218C120.013 239.218 120.025 239.218 120.037 239.218C120.049 239.218 120.061 239.218 120.074 239.218H121.535C121.551 239.218 121.563 239.23 121.563 239.245Z"/>
</mask>
<path d="M-126.696 239.218V237.188V239.218ZM56.1896 239.218V237.188V239.218ZM120 239.218V241.247H120L120 239.218ZM-156.307 239.218V241.247V239.218ZM99.4931 273.898L97.6443 274.735L99.4931 273.898ZM42.5939 351.606L44.6008 351.907L42.5939 351.606ZM64.7157 331.242L64.7506 333.271L64.7157 331.242ZM121.589 239.273L121.444 241.297L121.589 239.273ZM121.734 237.249C134.749 238.179 144.849 249.642 144.849 263.422H140.79C140.79 251.575 132.146 242.062 121.444 241.297L121.734 237.249ZM144.849 263.422C144.849 277.794 133.854 289.656 120.037 289.656V285.598C131.385 285.598 140.79 275.787 140.79 263.422H144.849ZM120.037 289.656C110.109 289.656 101.614 283.507 97.6443 274.735L101.342 273.061C104.724 280.534 111.864 285.598 120.037 285.598V289.656ZM61.8717 267.699H93.6131V271.757H61.8717V267.699ZM54.1602 324.357V275.41H58.2189V324.357H54.1602ZM65.0914 333.269C64.9775 333.269 64.864 333.27 64.7506 333.271L64.6809 329.213C64.8175 329.211 64.9543 329.21 65.0914 329.21V333.269ZM85.8443 355.444C85.8443 343.079 76.4389 333.269 65.0914 333.269V329.21C78.9085 329.21 89.903 341.073 89.903 355.444H85.8443ZM65.0914 377.619C76.4389 377.619 85.8443 367.809 85.8443 355.444H89.903C89.903 369.815 78.9085 381.678 65.0914 381.678V377.619ZM44.3384 355.444C44.3384 367.809 53.7439 377.619 65.0914 377.619V381.678C51.2742 381.678 40.2797 369.815 40.2797 355.444H44.3384ZM44.6008 351.907C44.4283 353.057 44.3384 354.239 44.3384 355.444H40.2797C40.2797 354.037 40.3846 352.654 40.587 351.305L44.6008 351.907ZM-102.749 340.004L35.8481 340.004V344.063L-102.749 344.063V340.004ZM-124.666 318.087C-124.666 330.191 -114.854 340.004 -102.749 340.004V344.063C-117.095 344.063 -128.725 332.433 -128.725 318.087H-124.666ZM-124.666 313.444V318.087H-128.725V313.444H-124.666ZM-156.307 305.732H-132.378V309.791H-156.307V305.732ZM-159.96 244.9V302.079H-164.018V244.9H-159.96ZM-126.696 241.247L-156.307 241.247V237.188L-126.696 237.188V241.247ZM56.1896 241.247L-126.696 241.247V237.188L56.1896 237.188V241.247ZM120 241.247L56.1896 241.247V237.188L120 237.188L120 241.247ZM120 237.188C120.005 237.188 120.01 237.188 120.016 237.188C120.022 237.188 120.029 237.188 120.037 237.188L120.037 241.247C120.032 241.247 120.028 241.247 120.021 241.247C120.015 241.247 120.008 241.247 120 241.247L120 237.188ZM120.037 237.188C120.045 237.188 120.052 237.188 120.058 237.188C120.064 237.188 120.069 237.188 120.074 237.188L120.074 241.247C120.066 241.247 120.059 241.247 120.053 241.247C120.046 241.247 120.042 241.247 120.037 241.247L120.037 237.188ZM121.535 241.247H120.074L120.074 237.188H121.535L121.535 241.247ZM-128.725 313.444C-128.725 311.426 -130.36 309.791 -132.378 309.791V305.732C-128.119 305.732 -124.666 309.185 -124.666 313.444H-128.725ZM-164.018 244.9C-164.018 240.641 -160.566 237.188 -156.307 237.188V241.247C-158.324 241.247 -159.96 242.882 -159.96 244.9H-164.018ZM61.8717 271.757C59.8543 271.757 58.2189 273.393 58.2189 275.41H54.1602C54.1602 271.151 57.6128 267.699 61.8717 267.699V271.757ZM-156.307 309.791C-160.566 309.791 -164.018 306.338 -164.018 302.079H-159.96C-159.96 304.097 -158.324 305.732 -156.307 305.732V309.791ZM97.6443 274.735C96.8128 272.897 95.2239 271.757 93.6131 271.757V267.699C97.204 267.699 100.029 270.16 101.342 273.061L97.6443 274.735ZM121.535 237.188C122.671 237.188 123.592 238.109 123.592 239.245H119.534C119.534 240.351 120.43 241.247 121.535 241.247L121.535 237.188ZM40.587 351.305C40.8407 349.613 40.3986 347.721 39.4494 346.278C38.5088 344.848 37.2275 344.063 35.8481 344.063V340.004C38.9364 340.004 41.3593 341.796 42.8403 344.047C44.3128 346.286 45.0097 349.18 44.6008 351.907L40.587 351.305ZM58.2189 324.357C58.2189 325.636 58.8893 326.823 60.1248 327.751C61.3749 328.691 63.064 329.241 64.6809 329.213L64.7506 333.271C62.2419 333.315 59.6679 332.485 57.6864 330.996C55.6901 329.496 54.1602 327.205 54.1602 324.357H58.2189ZM121.444 241.297C120.38 241.221 119.534 240.337 119.534 239.245H123.592C123.592 238.183 122.769 237.323 121.734 237.249L121.444 241.297Z" fill="#F22828" mask="url(#path-12-inside-6_831_2)"/>
</g>
<g filter="url(#filter7_f_831_2)">
<mask id="path-14-inside-7_831_2" fill="white">
<path fill-rule="evenodd" clip-rule="evenodd" d="M262.846 438.613C272.179 425.173 290.442 421.706 303.638 430.87C309.717 435.091 320.03 436.21 324.251 430.132L333.898 416.241C338.119 410.162 333.467 400.89 327.389 396.669C314.193 387.505 311.062 369.181 320.395 355.741C329.728 342.301 347.992 338.834 361.188 347.997C374.383 357.161 377.515 375.485 368.181 388.925C363.504 395.661 361.956 407.675 368.692 412.352L386.24 424.538C395.244 430.791 407.612 428.56 413.864 419.556L440.676 380.947C445.17 374.475 439.557 364.074 433.086 359.58C420.128 350.581 417.053 332.587 426.218 319.389C433.702 308.612 447.034 304.365 458.729 308.07L459.443 307.041L466.207 311.738C466.23 311.754 466.253 311.769 466.275 311.785C466.298 311.801 466.321 311.817 466.344 311.833L504.646 338.431L502.211 341.939C514.319 350.348 517.318 366.98 508.91 379.088L430.046 492.654C421.638 504.762 405.006 507.761 392.897 499.353L369.909 483.389C369.788 483.305 369.622 483.335 369.537 483.456C369.453 483.577 369.287 483.607 369.166 483.523L337.11 461.263C329.834 456.21 315.684 464.522 310.632 471.797C301.299 485.238 283.035 488.704 269.839 479.541C256.644 470.377 253.512 452.053 262.846 438.613Z"/>
</mask>
<path d="M458.729 308.07L457.761 311.123L460.013 311.837L461.36 309.897L458.729 308.07ZM459.443 307.041L461.27 304.41L458.639 302.583L456.812 305.214L459.443 307.041ZM466.207 311.738L464.38 314.369L464.387 314.374L466.207 311.738ZM466.344 311.833L464.51 314.459L464.517 314.464L466.344 311.833ZM504.646 338.431L507.277 340.258L509.104 337.628L506.473 335.801L504.646 338.431ZM502.211 341.939L499.58 340.112L497.753 342.743L500.384 344.57L502.211 341.939ZM305.465 428.239C290.771 418.035 270.525 421.939 260.215 436.786L265.477 440.44C273.833 428.407 290.114 425.378 301.811 433.501L305.465 428.239ZM321.62 428.305C320.329 430.164 317.921 431.2 314.681 431.16C311.454 431.121 307.978 429.984 305.465 428.239L301.811 433.501C305.376 435.976 310.097 437.51 314.602 437.566C319.093 437.621 323.952 436.178 326.882 431.959L321.62 428.305ZM331.267 414.414L321.62 428.305L326.882 431.959L336.529 418.068L331.267 414.414ZM325.562 399.299C328.075 401.045 330.354 403.904 331.518 406.914C332.688 409.936 332.558 412.555 331.267 414.414L336.529 418.068C339.459 413.848 339.114 408.791 337.493 404.602C335.867 400.401 332.781 396.513 329.216 394.038L325.562 399.299ZM317.764 353.914C307.454 368.761 310.868 389.095 325.562 399.299L329.216 394.038C317.518 385.915 314.67 369.601 323.026 357.568L317.764 353.914ZM363.014 345.367C348.32 335.162 328.075 339.066 317.764 353.914L323.026 357.568C331.382 345.535 347.663 342.505 359.361 350.628L363.014 345.367ZM370.812 390.752C381.123 375.905 377.709 355.571 363.014 345.367L359.361 350.628C371.058 358.751 373.906 375.065 365.55 387.098L370.812 390.752ZM370.519 409.721C368.399 408.249 367.245 405.376 367.358 401.504C367.47 397.677 368.837 393.596 370.812 390.752L365.55 387.098C362.847 390.99 361.102 396.283 360.955 401.317C360.809 406.305 362.25 411.778 366.865 414.983L370.519 409.721ZM388.067 421.907L370.519 409.721L366.865 414.983L384.413 427.169L388.067 421.907ZM411.234 417.729C405.99 425.28 395.618 427.151 388.067 421.907L384.413 427.169C394.87 434.431 409.234 431.84 416.495 421.383L411.234 417.729ZM438.045 379.12L411.234 417.729L416.495 421.383L443.307 382.774L438.045 379.12ZM431.259 362.21C433.976 364.097 436.613 367.328 438.035 370.751C439.479 374.226 439.408 377.157 438.045 379.12L443.307 382.774C446.438 378.266 445.807 372.76 443.951 368.293C442.073 363.773 438.667 359.556 434.913 356.949L431.259 362.21ZM423.587 317.562C413.445 332.168 416.802 352.172 431.259 362.21L434.913 356.949C423.453 348.991 420.661 333.007 428.849 321.216L423.587 317.562ZM459.696 305.016C446.669 300.889 431.876 305.626 423.587 317.562L428.849 321.216C435.529 311.597 447.4 307.841 457.761 311.123L459.696 305.016ZM461.36 309.897L462.074 308.868L456.812 305.214L456.098 306.243L461.36 309.897ZM457.616 309.672L464.38 314.369L468.034 309.107L461.27 304.41L457.616 309.672ZM468.102 309.155C468.077 309.137 468.051 309.119 468.026 309.102L464.387 314.374C464.408 314.388 464.428 314.402 464.448 314.416L468.102 309.155ZM468.178 309.207C468.153 309.19 468.128 309.172 468.102 309.155L464.448 314.416C464.469 314.43 464.489 314.444 464.51 314.459L468.178 309.207ZM464.517 314.464L502.819 341.062L506.473 335.801L468.171 309.202L464.517 314.464ZM502.016 336.605L499.58 340.112L504.841 343.766L507.277 340.258L502.016 336.605ZM511.54 380.915C520.958 367.354 517.599 348.726 504.037 339.308L500.384 344.57C511.039 351.97 513.678 366.606 506.279 377.261L511.54 380.915ZM432.677 494.481L511.54 380.915L506.279 377.261L427.415 490.827L432.677 494.481ZM391.07 501.984C404.632 511.401 423.259 508.042 432.677 494.481L427.415 490.827C420.016 501.482 405.38 504.122 394.724 496.722L391.07 501.984ZM368.082 486.02L391.07 501.984L394.724 496.722L371.736 480.758L368.082 486.02ZM372.168 485.283C371.243 486.615 369.414 486.945 368.082 486.02L371.736 480.758C370.162 479.665 368 480.055 366.907 481.629L372.168 485.283ZM367.339 486.154C368.913 487.247 371.075 486.857 372.168 485.283L366.907 481.629C367.831 480.297 369.661 479.968 370.993 480.892L367.339 486.154ZM335.283 463.893L367.339 486.154L370.993 480.892L338.937 458.632L335.283 463.893ZM313.263 473.624C315.408 470.536 319.724 466.975 324.385 464.813C329.25 462.556 333.137 462.404 335.283 463.893L338.937 458.632C333.807 455.069 326.981 456.547 321.689 459.002C316.194 461.551 310.908 465.784 308.001 469.97L313.263 473.624ZM268.012 482.172C282.707 492.376 302.952 488.472 313.263 473.624L308.001 469.97C299.645 482.003 283.364 485.033 271.666 476.91L268.012 482.172ZM260.215 436.786C249.904 451.634 253.318 471.968 268.012 482.172L271.666 476.91C259.969 468.787 257.121 452.473 265.477 440.44L260.215 436.786Z" fill="#FDD05C" fill-opacity="0.7" mask="url(#path-14-inside-7_831_2)"/>
</g>
<g filter="url(#filter8_f_831_2)">
<mask id="path-16-inside-8_831_2" fill="white">
<path fill-rule="evenodd" clip-rule="evenodd" d="M258.899 435.873C268.232 422.433 286.496 418.966 299.692 428.129C305.77 432.351 316.084 433.47 320.305 427.392L329.951 413.5C334.172 407.422 329.521 398.149 323.442 393.928C310.247 384.765 307.115 366.441 316.449 353C325.782 339.56 344.045 336.093 357.241 345.257C370.437 354.421 373.568 372.745 364.235 386.185C359.557 392.921 358.01 404.934 364.746 409.612L382.293 421.798C391.297 428.05 403.665 425.82 409.918 416.816L437.168 377.574C439.759 373.844 438.97 368.876 436.574 364.602L423.281 355.371L425.038 352.84C416.829 343.16 415.877 328.665 423.587 317.562C432.752 304.364 450.686 300.96 463.644 309.958C468.131 313.074 471.433 317.269 473.452 321.969L474.985 323.034C475.058 322.982 475.124 322.916 475.18 322.836C475.43 322.476 475.925 322.386 476.285 322.637L498.872 338.322C510.981 346.73 513.98 363.362 505.572 375.47L426.099 489.913C417.691 502.022 401.059 505.021 388.951 496.613L365.962 480.649C365.841 480.565 365.675 480.595 365.591 480.716C365.507 480.837 365.34 480.867 365.219 480.783L333.163 458.522C325.888 453.47 311.738 461.782 306.685 469.057C297.352 482.497 279.089 485.964 265.893 476.801C252.697 467.637 249.566 449.313 258.899 435.873Z"/>
</mask>
<path d="M436.574 364.602L439.368 363.036L439.007 362.392L438.401 361.971L436.574 364.602ZM423.281 355.371L420.65 353.544L418.823 356.175L421.454 358.002L423.281 355.371ZM425.038 352.84L427.669 354.667L429.073 352.646L427.481 350.769L425.038 352.84ZM473.452 321.969L470.509 323.233L470.872 324.076L471.625 324.6L473.452 321.969ZM474.985 323.034L473.158 325.664L475.003 326.946L476.836 325.648L474.985 323.034ZM388.951 496.613L390.777 493.982L388.951 496.613ZM365.962 480.649L364.135 483.28L365.962 480.649ZM365.219 480.783L367.046 478.152L365.219 480.783ZM333.163 458.522L331.336 461.153L333.163 458.522ZM301.519 425.499C286.825 415.295 266.579 419.199 256.268 434.046L261.53 437.7C269.886 425.667 286.167 422.637 297.865 430.76L301.519 425.499ZM317.674 425.565C316.383 427.424 313.974 428.46 310.734 428.42C307.507 428.38 304.032 427.244 301.519 425.499L297.865 430.76C301.43 433.236 306.151 434.77 310.655 434.826C315.147 434.881 320.005 433.438 322.936 429.218L317.674 425.565ZM327.32 411.673L317.674 425.565L322.936 429.218L332.582 415.327L327.32 411.673ZM321.615 396.559C324.129 398.304 326.407 401.164 327.572 404.173C328.741 407.196 328.611 409.814 327.32 411.673L332.582 415.327C335.512 411.108 335.167 406.051 333.546 401.862C331.921 397.661 328.835 393.773 325.269 391.297L321.615 396.559ZM313.818 351.174C303.507 366.021 306.921 386.355 321.615 396.559L325.269 391.297C313.572 383.174 310.723 366.86 319.079 354.827L313.818 351.174ZM359.068 342.626C344.374 332.422 324.128 336.326 313.818 351.174L319.079 354.827C327.435 342.795 343.717 339.765 355.414 347.888L359.068 342.626ZM366.866 388.012C377.176 373.164 373.762 352.83 359.068 342.626L355.414 347.888C367.112 356.011 369.96 372.325 361.604 384.358L366.866 388.012ZM366.573 406.981C364.452 405.509 363.299 402.636 363.412 398.764C363.524 394.937 364.891 390.855 366.866 388.012L361.604 384.358C358.901 388.25 357.156 393.543 357.009 398.577C356.863 403.565 358.304 409.038 362.919 412.243L366.573 406.981ZM384.12 419.167L366.573 406.981L362.919 412.243L380.467 424.429L384.12 419.167ZM407.287 414.989C402.043 422.54 391.671 424.41 384.12 419.167L380.467 424.429C390.923 431.69 405.287 429.1 412.548 418.643L407.287 414.989ZM434.538 375.747L407.287 414.989L412.548 418.643L439.799 379.401L434.538 375.747ZM433.78 366.169C435.915 369.975 436.106 373.488 434.538 375.747L439.799 379.401C443.411 374.2 442.026 367.776 439.368 363.036L433.78 366.169ZM438.401 361.971L425.108 352.74L421.454 358.002L434.747 367.233L438.401 361.971ZM425.912 357.198L427.669 354.667L422.408 351.013L420.65 353.544L425.912 357.198ZM420.956 315.735C412.419 328.03 413.447 344.125 422.596 354.912L427.481 350.769C420.21 342.195 419.336 329.299 426.218 319.389L420.956 315.735ZM465.471 307.328C451.015 297.289 431.098 301.13 420.956 315.735L426.218 319.389C434.406 307.599 450.358 304.631 461.818 312.589L465.471 307.328ZM476.395 320.705C474.148 315.472 470.467 310.797 465.471 307.328L461.818 312.589C465.795 315.352 468.719 319.065 470.509 323.233L476.395 320.705ZM471.625 324.6L473.158 325.664L476.812 320.403L475.279 319.338L471.625 324.6ZM472.549 321.009C472.706 320.784 472.903 320.583 473.134 320.419L476.836 325.648C477.213 325.381 477.543 325.048 477.811 324.663L472.549 321.009ZM478.112 320.006C476.299 318.747 473.808 319.196 472.549 321.009L477.811 324.663C477.052 325.756 475.551 326.026 474.458 325.267L478.112 320.006ZM500.699 335.691L478.112 320.006L474.458 325.267L497.046 340.953L500.699 335.691ZM508.203 377.297C517.62 363.736 514.261 345.108 500.699 335.691L497.046 340.953C507.701 348.352 510.34 362.988 502.941 373.643L508.203 377.297ZM428.73 491.74L508.203 377.297L502.941 373.643L423.468 488.086L428.73 491.74ZM387.124 499.244C400.685 508.661 419.313 505.302 428.73 491.74L423.468 488.086C416.069 498.742 401.433 501.381 390.777 493.982L387.124 499.244ZM364.135 483.28L387.124 499.244L390.777 493.982L367.789 478.018L364.135 483.28ZM368.222 482.543C367.297 483.875 365.467 484.205 364.135 483.28L367.789 478.018C366.215 476.925 364.053 477.315 362.96 478.889L368.222 482.543ZM363.392 483.414C364.967 484.507 367.129 484.117 368.222 482.543L362.96 478.889C363.885 477.557 365.714 477.227 367.046 478.152L363.392 483.414ZM331.336 461.153L363.392 483.414L367.046 478.152L334.99 455.891L331.336 461.153ZM309.316 470.884C311.461 467.795 315.777 464.235 320.438 462.073C325.303 459.816 329.191 459.663 331.336 461.153L334.99 455.891C329.86 452.329 323.035 453.806 317.743 456.261C312.247 458.811 306.962 463.044 304.055 467.23L309.316 470.884ZM264.066 479.431C278.76 489.636 299.006 485.732 309.316 470.884L304.055 467.23C295.699 479.263 279.417 482.293 267.72 474.17L264.066 479.431ZM256.268 434.046C245.958 448.893 249.372 469.227 264.066 479.431L267.72 474.17C256.022 466.047 253.174 449.733 261.53 437.7L256.268 434.046Z" fill="#FDD05C" fill-opacity="0.7" mask="url(#path-16-inside-8_831_2)"/>
</g>
<g filter="url(#filter9_f_831_2)">
<mask id="path-18-inside-9_831_2" fill="white">
<path fill-rule="evenodd" clip-rule="evenodd" d="M260.216 436.786C269.549 423.346 287.812 419.879 301.008 429.043C307.086 433.264 317.4 434.383 321.621 428.305L331.267 414.414C335.488 408.335 330.837 399.062 324.758 394.841C311.562 385.678 308.431 367.354 317.765 353.914C327.098 340.474 345.361 337.007 358.557 346.17C371.753 355.334 374.884 373.658 365.551 387.098C360.873 393.834 359.326 405.848 366.062 410.525L383.61 422.711C392.614 428.964 404.981 426.733 411.234 417.729L438.334 378.705C442.67 372.461 437.577 362.698 431.332 358.362C429.143 356.841 427.235 355.064 425.621 353.096L425.109 352.74L425.215 352.588C417.658 342.924 416.98 328.949 424.465 318.171C431.949 307.394 445.281 303.147 456.975 306.852L457.081 306.7L457.593 307.056C460.001 307.88 462.332 309.047 464.522 310.567C466.712 312.088 468.619 313.866 470.233 315.833L502.284 338.09L501.358 339.423C512.74 348.009 515.397 364.131 507.193 375.945L427.415 490.827C419.007 502.935 402.375 505.934 390.267 497.526L367.278 481.562C367.157 481.478 366.991 481.508 366.907 481.629C366.823 481.75 366.656 481.78 366.535 481.696L334.479 459.436C327.204 454.384 313.054 462.695 308.002 469.97C298.668 483.411 280.405 486.877 267.209 477.714C254.013 468.55 250.882 450.226 260.216 436.786Z"/>
</mask>
<path d="M321.621 428.305L324.252 430.132L321.621 428.305ZM331.267 414.414L328.636 412.587L331.267 414.414ZM411.234 417.729L413.865 419.556L411.234 417.729ZM438.334 378.705L435.703 376.878L438.334 378.705ZM425.621 353.096L428.098 351.065L427.815 350.72L427.448 350.465L425.621 353.096ZM425.109 352.74L422.478 350.913L420.651 353.544L423.282 355.371L425.109 352.74ZM425.215 352.588L427.845 354.415L429.192 352.475L427.738 350.615L425.215 352.588ZM456.975 306.852L456.008 309.905L458.259 310.619L459.606 308.679L456.975 306.852ZM457.081 306.7L458.908 304.069L456.277 302.242L454.45 304.873L457.081 306.7ZM457.593 307.056L455.766 309.686L456.133 309.941L456.555 310.086L457.593 307.056ZM470.233 315.833L467.757 317.864L468.04 318.21L468.406 318.464L470.233 315.833ZM502.284 338.09L504.915 339.917L506.742 337.286L504.111 335.459L502.284 338.09ZM501.358 339.423L498.727 337.596L496.971 340.125L499.429 341.98L501.358 339.423ZM390.267 497.526L388.44 500.157L390.267 497.526ZM367.278 481.562L369.105 478.931L367.278 481.562ZM302.835 426.412C288.141 416.208 267.895 420.112 257.585 434.959L262.846 438.613C271.202 426.58 287.484 423.551 299.181 431.674L302.835 426.412ZM318.99 426.478C317.699 428.337 315.29 429.373 312.05 429.333C308.823 429.293 305.348 428.157 302.835 426.412L299.181 431.674C302.746 434.149 307.467 435.683 311.971 435.739C316.463 435.794 321.321 434.351 324.252 430.132L318.99 426.478ZM328.636 412.587L318.99 426.478L324.252 430.132L333.898 416.24L328.636 412.587ZM322.931 397.472C325.444 399.218 327.723 402.077 328.888 405.087C330.057 408.109 329.927 410.728 328.636 412.587L333.898 416.24C336.828 412.021 336.483 406.964 334.862 402.775C333.237 398.574 330.15 394.686 326.585 392.211L322.931 397.472ZM315.134 352.087C304.823 366.934 308.237 387.268 322.931 397.472L326.585 392.211C314.888 384.087 312.039 367.774 320.395 355.741L315.134 352.087ZM360.384 343.539C345.69 333.335 325.444 337.239 315.134 352.087L320.395 355.741C328.751 343.708 345.033 340.678 356.73 348.801L360.384 343.539ZM368.182 388.925C378.492 374.077 375.078 353.743 360.384 343.539L356.73 348.801C368.428 356.924 371.276 373.238 362.92 385.271L368.182 388.925ZM367.889 407.894C365.768 406.422 364.615 403.549 364.728 399.677C364.84 395.85 366.207 391.769 368.182 388.925L362.92 385.271C360.217 389.163 358.472 394.456 358.325 399.49C358.179 404.478 359.619 409.951 364.235 413.156L367.889 407.894ZM385.437 420.08L367.889 407.894L364.235 413.156L381.783 425.342L385.437 420.08ZM408.603 415.902C403.36 423.453 392.988 425.324 385.437 420.08L381.783 425.342C392.24 432.603 406.603 430.013 413.865 419.556L408.603 415.902ZM435.703 376.878L408.603 415.902L413.865 419.556L440.965 380.532L435.703 376.878ZM429.505 360.993C432.106 362.799 434.547 365.821 435.829 369.012C437.123 372.233 437.019 374.982 435.703 376.878L440.965 380.532C443.984 376.183 443.502 370.929 441.773 366.624C440.031 362.288 436.803 358.261 433.159 355.731L429.505 360.993ZM423.145 355.127C424.944 357.321 427.07 359.301 429.505 360.993L433.159 355.731C431.215 354.381 429.526 352.806 428.098 351.065L423.145 355.127ZM427.448 350.465L426.936 350.109L423.282 355.371L423.794 355.727L427.448 350.465ZM427.74 354.567L427.845 354.415L422.584 350.761L422.478 350.913L427.74 354.567ZM421.834 316.344C413.545 328.28 414.274 343.796 422.691 354.561L427.738 350.615C421.042 342.052 420.416 329.617 427.095 319.998L421.834 316.344ZM457.942 303.798C444.915 299.672 430.122 304.409 421.834 316.344L427.095 319.998C433.775 310.379 445.646 306.623 456.008 309.905L457.942 303.798ZM459.606 308.679L459.711 308.527L454.45 304.873L454.344 305.025L459.606 308.679ZM455.254 309.331L455.766 309.686L459.42 304.425L458.908 304.069L455.254 309.331ZM466.349 307.937C463.913 306.245 461.316 304.945 458.631 304.025L456.555 310.086C458.685 310.816 460.751 311.848 462.695 313.198L466.349 307.937ZM472.71 313.802C470.91 311.608 468.785 309.628 466.349 307.937L462.695 313.198C464.639 314.548 466.328 316.123 467.757 317.864L472.71 313.802ZM468.406 318.464L500.457 340.721L504.111 335.459L472.06 313.202L468.406 318.464ZM499.653 336.263L498.727 337.596L503.989 341.25L504.915 339.917L499.653 336.263ZM509.823 377.772C519.013 364.539 516.037 346.484 503.287 336.866L499.429 341.98C509.444 349.535 511.781 363.722 504.562 374.118L509.823 377.772ZM430.046 492.654L509.823 377.772L504.562 374.118L424.785 489L430.046 492.654ZM388.44 500.157C402.001 509.574 420.629 506.215 430.046 492.654L424.785 489C417.385 499.655 402.749 502.295 392.094 494.895L388.44 500.157ZM365.451 484.193L388.44 500.157L392.094 494.895L369.105 478.931L365.451 484.193ZM369.538 483.456C368.613 484.788 366.783 485.118 365.451 484.193L369.105 478.931C367.531 477.838 365.369 478.228 364.276 479.802L369.538 483.456ZM364.708 484.327C366.282 485.42 368.445 485.03 369.538 483.456L364.276 479.802C365.201 478.47 367.03 478.14 368.362 479.065L364.708 484.327ZM332.652 462.066L364.708 484.327L368.362 479.065L336.306 456.805L332.652 462.066ZM310.633 471.797C312.777 468.709 317.093 465.148 321.755 462.986C326.62 460.729 330.507 460.577 332.652 462.066L336.306 456.805C331.176 453.242 324.351 454.72 319.059 457.175C313.563 459.724 308.278 463.957 305.371 468.143L310.633 471.797ZM265.382 480.345C280.076 490.549 300.322 486.645 310.633 471.797L305.371 468.143C297.015 480.176 280.734 483.206 269.036 475.083L265.382 480.345ZM257.585 434.959C247.274 449.807 250.688 470.141 265.382 480.345L269.036 475.083C257.339 466.96 254.49 450.646 262.846 438.613L257.585 434.959Z" fill="#FDD05C" fill-opacity="0.7" mask="url(#path-18-inside-9_831_2)"/>
</g>
<g filter="url(#filter10_f_831_2)">
<mask id="path-20-inside-10_831_2" fill="white">
<path fill-rule="evenodd" clip-rule="evenodd" d="M-37.1955 606.691C-37.1955 591.949 -25.2452 579.999 -10.5038 579.999H51.0173C65.7587 579.999 77.709 591.949 77.709 606.691V609.005C77.709 623.415 89.3911 635.097 103.802 635.097C118.212 635.097 129.895 646.78 129.895 661.19V663.505C129.895 678.246 117.944 690.196 103.203 690.196H41.6817C26.9403 690.196 14.99 678.246 14.99 663.505V661.19C14.99 646.78 3.30788 635.098 -11.1028 635.098C-25.5134 635.098 -37.1955 623.415 -37.1955 609.005V606.691Z"/>
</mask>
<path d="M51.0173 583.202H-10.5038V576.796H51.0173V583.202ZM74.506 609.005V606.691H80.912V609.005H74.506ZM126.692 663.505V661.19H133.098V663.505H126.692ZM41.6817 686.993H103.203V693.399H41.6817V686.993ZM18.193 661.19V663.505H11.787V661.19H18.193ZM-33.9925 606.691V609.005H-40.3985V606.691H-33.9925ZM-11.1028 638.301C-27.2824 638.301 -40.3985 625.184 -40.3985 609.005H-33.9925C-33.9925 621.646 -23.7444 631.895 -11.1028 631.895V638.301ZM11.787 661.19C11.787 648.549 1.53889 638.301 -11.1028 638.301V631.895C5.07685 631.895 18.193 645.011 18.193 661.19H11.787ZM41.6817 693.399C25.1713 693.399 11.787 680.015 11.787 663.505H18.193C18.193 676.477 28.7093 686.993 41.6817 686.993V693.399ZM133.098 663.505C133.098 680.015 119.713 693.399 103.203 693.399V686.993C116.175 686.993 126.692 676.477 126.692 663.505H133.098ZM103.802 631.894C119.981 631.894 133.098 645.011 133.098 661.19H126.692C126.692 648.549 116.443 638.301 103.802 638.301V631.894ZM80.912 609.005C80.912 621.646 91.1601 631.894 103.802 631.894V638.301C87.6221 638.301 74.506 625.184 74.506 609.005H80.912ZM-10.5038 583.202C-23.4763 583.202 -33.9925 593.718 -33.9925 606.691H-40.3985C-40.3985 590.18 -27.0142 576.796 -10.5038 576.796V583.202ZM51.0173 576.796C67.5277 576.796 80.912 590.18 80.912 606.691H74.506C74.506 593.718 63.9897 583.202 51.0173 583.202V576.796Z" fill="#417336" fill-opacity="0.52" mask="url(#path-20-inside-10_831_2)"/>
</g>
<g filter="url(#filter11_f_831_2)">
<mask id="path-22-inside-11_831_2" fill="white">
<path fill-rule="evenodd" clip-rule="evenodd" d="M-41.9997 606.691C-41.9997 591.949 -30.0494 579.999 -15.308 579.999H46.2131C60.9545 579.999 72.9048 591.949 72.9048 606.691V609.005C72.9048 623.415 84.5869 635.097 98.9976 635.097C113.408 635.097 125.09 646.78 125.09 661.19V663.505C125.09 678.246 113.14 690.196 98.3986 690.196H36.8775C22.1361 690.196 10.1858 678.246 10.1858 663.505V661.19C10.1858 646.78 -1.49633 635.098 -15.907 635.098C-30.3176 635.098 -41.9997 623.415 -41.9997 609.005V606.691Z"/>
</mask>
<path d="M46.2131 583.202H-15.308V576.796H46.2131V583.202ZM69.7018 609.005V606.691H76.1078V609.005H69.7018ZM121.887 663.505V661.19H128.293V663.505H121.887ZM36.8775 686.993H98.3986V693.399H36.8775V686.993ZM13.3888 661.19V663.505H6.9828V661.19H13.3888ZM-38.7967 606.691V609.005H-45.2027V606.691H-38.7967ZM-15.907 638.301C-32.0866 638.301 -45.2027 625.184 -45.2027 609.005H-38.7967C-38.7967 621.646 -28.5486 631.895 -15.907 631.895V638.301ZM6.9828 661.19C6.9828 648.549 -3.2653 638.301 -15.907 638.301V631.895C0.272644 631.895 13.3888 645.011 13.3888 661.19H6.9828ZM36.8775 693.399C20.3671 693.399 6.9828 680.015 6.9828 663.505H13.3888C13.3888 676.477 23.9051 686.993 36.8775 686.993V693.399ZM128.293 663.505C128.293 680.015 114.909 693.399 98.3986 693.399V686.993C111.371 686.993 121.887 676.477 121.887 663.505H128.293ZM98.9976 631.894C115.177 631.894 128.293 645.011 128.293 661.19H121.887C121.887 648.549 111.639 638.301 98.9976 638.301V631.894ZM76.1078 609.005C76.1078 621.646 86.3559 631.894 98.9976 631.894V638.301C82.8179 638.301 69.7018 625.184 69.7018 609.005H76.1078ZM-15.308 583.202C-28.2805 583.202 -38.7967 593.718 -38.7967 606.691H-45.2027C-45.2027 590.18 -31.8184 576.796 -15.308 576.796V583.202ZM46.2131 576.796C62.7235 576.796 76.1078 590.18 76.1078 606.691H69.7018C69.7018 593.718 59.1855 583.202 46.2131 583.202V576.796Z" fill="#417336" fill-opacity="0.52" mask="url(#path-22-inside-11_831_2)"/>
</g>
<g filter="url(#filter12_f_831_2)">
<mask id="path-24-inside-12_831_2" fill="white">
<path fill-rule="evenodd" clip-rule="evenodd" d="M-40.3982 606.691C-40.3982 591.949 -28.4479 579.999 -13.7064 579.999H47.8146C62.5561 579.999 74.5064 591.949 74.5064 606.691V609.005C74.5064 623.415 86.1885 635.097 100.599 635.097C115.01 635.097 126.692 646.78 126.692 661.19V663.505C126.692 678.246 114.742 690.196 100 690.196H38.4791C23.7377 690.196 11.7874 678.246 11.7874 663.505V661.19C11.7874 646.78 0.10524 635.098 -14.3054 635.098C-28.716 635.098 -40.3982 623.415 -40.3982 609.005V606.691Z"/>
</mask>
<path d="M47.8146 582.668H-13.7064V577.33H47.8146V582.668ZM71.8372 609.005V606.691H77.1755V609.005H71.8372ZM124.023 663.505V661.19H129.361V663.505H124.023ZM38.4791 687.527H100V692.865H38.4791V687.527ZM14.4565 661.19V663.505H9.11819V661.19H14.4565ZM-37.729 606.691V609.005H-43.0673V606.691H-37.729ZM-14.3054 637.767C-30.1902 637.767 -43.0673 624.89 -43.0673 609.005H-37.729C-37.729 621.941 -27.2419 632.428 -14.3054 632.428V637.767ZM9.11819 661.19C9.11819 648.254 -1.36891 637.767 -14.3054 637.767V632.428C1.57938 632.428 14.4565 645.306 14.4565 661.19H9.11819ZM38.4791 692.865C22.2635 692.865 9.11819 679.72 9.11819 663.505H14.4565C14.4565 676.772 25.2118 687.527 38.4791 687.527V692.865ZM129.361 663.505C129.361 679.72 116.216 692.865 100 692.865V687.527C113.267 687.527 124.023 676.772 124.023 663.505H129.361ZM100.599 632.428C116.484 632.428 129.361 645.306 129.361 661.19H124.023C124.023 648.254 113.536 637.767 100.599 637.767V632.428ZM77.1755 609.005C77.1755 621.941 87.6626 632.428 100.599 632.428V637.767C84.7143 637.767 71.8372 624.89 71.8372 609.005H77.1755ZM-13.7064 582.668C-26.9737 582.668 -37.729 593.423 -37.729 606.691H-43.0673C-43.0673 590.475 -29.922 577.33 -13.7064 577.33V582.668ZM47.8146 577.33C64.0302 577.33 77.1755 590.475 77.1755 606.691H71.8372C71.8372 593.423 61.0819 582.668 47.8146 582.668V577.33Z" fill="#417336" fill-opacity="0.52" mask="url(#path-24-inside-12_831_2)"/>
</g>
<g filter="url(#filter13_f_831_2)">
<mask id="path-26-inside-13_831_2" fill="white">
<path fill-rule="evenodd" clip-rule="evenodd" d="M-40.3982 606.691C-40.3982 591.949 -28.4479 579.999 -13.7064 579.999H47.8146C62.5561 579.999 74.5064 591.949 74.5064 606.691V609.005C74.5064 623.415 86.1885 635.097 100.599 635.097C115.01 635.097 126.692 646.78 126.692 661.19V663.505C126.692 678.246 114.742 690.196 100 690.196H38.4791C23.7377 690.196 11.7874 678.246 11.7874 663.505V661.19C11.7874 646.78 0.10524 635.098 -14.3054 635.098C-28.716 635.098 -40.3982 623.415 -40.3982 609.005V606.691Z"/>
</mask>
<path d="M47.8146 582.668H-13.7064V577.33H47.8146V582.668ZM71.8372 609.005V606.691H77.1755V609.005H71.8372ZM124.023 663.505V661.19H129.361V663.505H124.023ZM38.4791 687.527H100V692.865H38.4791V687.527ZM14.4565 661.19V663.505H9.11819V661.19H14.4565ZM-37.729 606.691V609.005H-43.0673V606.691H-37.729ZM-14.3054 637.767C-30.1902 637.767 -43.0673 624.89 -43.0673 609.005H-37.729C-37.729 621.941 -27.2419 632.428 -14.3054 632.428V637.767ZM9.11819 661.19C9.11819 648.254 -1.36891 637.767 -14.3054 637.767V632.428C1.57938 632.428 14.4565 645.306 14.4565 661.19H9.11819ZM38.4791 692.865C22.2635 692.865 9.11819 679.72 9.11819 663.505H14.4565C14.4565 676.772 25.2118 687.527 38.4791 687.527V692.865ZM129.361 663.505C129.361 679.72 116.216 692.865 100 692.865V687.527C113.267 687.527 124.023 676.772 124.023 663.505H129.361ZM100.599 632.428C116.484 632.428 129.361 645.306 129.361 661.19H124.023C124.023 648.254 113.536 637.767 100.599 637.767V632.428ZM77.1755 609.005C77.1755 621.941 87.6626 632.428 100.599 632.428V637.767C84.7143 637.767 71.8372 624.89 71.8372 609.005H77.1755ZM-13.7064 582.668C-26.9737 582.668 -37.729 593.423 -37.729 606.691H-43.0673C-43.0673 590.475 -29.922 577.33 -13.7064 577.33V582.668ZM47.8146 577.33C64.0302 577.33 77.1755 590.475 77.1755 606.691H71.8372C71.8372 593.423 61.0819 582.668 47.8146 582.668V577.33Z" fill="#417336" fill-opacity="0.52" mask="url(#path-26-inside-13_831_2)"/>
</g>
<g filter="url(#filter14_f_831_2)">
<ellipse cx="195.881" cy="1005.23" rx="331.138" ry="332.953" transform="rotate(166.693 195.881 1005.23)" fill="#7A9BF2"/>
</g>
<g filter="url(#filter15_f_831_2)">
<circle cx="195" cy="285" r="137" fill="#6B8EEE"/>
</g>
<defs>
<filter id="filter0_d_831_2" x="-14.1956" y="0" width="418.391" height="872.391" filterUnits="userSpaceOnUse" color-interpolation-filters="sRGB">
<feFlood flood-opacity="0" result="BackgroundImageFix"/>
<feColorMatrix in="SourceAlpha" type="matrix" values="0 0 0 0 0 0 0 0 0 0 0 0 0 0 0 0 0 0 127 0" result="hardAlpha"/>
<feOffset dy="14.1956"/>
<feGaussianBlur stdDeviation="7.0978"/>
<feComposite in2="hardAlpha" operator="out"/>
<feColorMatrix type="matrix" values="0 0 0 0 0 0 0 0 0 0 0 0 0 0 0 0 0 0 0.25 0"/>
<feBlend mode="normal" in2="BackgroundImageFix" result="effect1_dropShadow_831_2"/>
<feBlend mode="normal" in="SourceGraphic" in2="effect1_dropShadow_831_2" result="shape"/>
</filter>
<filter id="filter1_f_831_2" x="238.773" y="640.508" width="232.876" height="240.932" filterUnits="userSpaceOnUse" color-interpolation-filters="sRGB">
<feFlood flood-opacity="0" result="BackgroundImageFix"/>
<feBlend mode="normal" in="SourceGraphic" in2="BackgroundImageFix" result="shape"/>
<feGaussianBlur stdDeviation="3.24624" result="effect1_foregroundBlur_831_2"/>
</filter>
<filter id="filter2_f_831_2" x="234.508" y="640.507" width="232.876" height="240.932" filterUnits="userSpaceOnUse" color-interpolation-filters="sRGB">
<feFlood flood-opacity="0" result="BackgroundImageFix"/>
<feBlend mode="normal" in="SourceGraphic" in2="BackgroundImageFix" result="shape"/>
<feGaussianBlur stdDeviation="3.24624" result="effect1_foregroundBlur_831_2"/>
</filter>
<filter id="filter3_f_831_2" x="240.526" y="645.104" width="223.682" height="231.739" filterUnits="userSpaceOnUse" color-interpolation-filters="sRGB">
<feFlood flood-opacity="0" result="BackgroundImageFix"/>
<feBlend mode="normal" in="SourceGraphic" in2="BackgroundImageFix" result="shape"/>
<feGaussianBlur stdDeviation="0.947807" result="effect1_foregroundBlur_831_2"/>
</filter>
<filter id="filter4_f_831_2" x="-167.56" y="236.092" width="315.929" height="151.552" filterUnits="userSpaceOnUse" color-interpolation-filters="sRGB">
<feFlood flood-opacity="0" result="BackgroundImageFix"/>
<feBlend mode="normal" in="SourceGraphic" in2="BackgroundImageFix" result="shape"/>
<feGaussianBlur stdDeviation="2.78021" result="effect1_foregroundBlur_831_2"/>
</filter>
<filter id="filter5_f_831_2" x="-167.544" y="232.44" width="315.929" height="151.552" filterUnits="userSpaceOnUse" color-interpolation-filters="sRGB">
<feFlood flood-opacity="0" result="BackgroundImageFix"/>
<feBlend mode="normal" in="SourceGraphic" in2="BackgroundImageFix" result="shape"/>
<feGaussianBlur stdDeviation="2.78021" result="effect1_foregroundBlur_831_2"/>
</filter>
<filter id="filter6_f_831_2" x="-163.613" y="237.594" width="308.056" height="143.678" filterUnits="userSpaceOnUse" color-interpolation-filters="sRGB">
<feFlood flood-opacity="0" result="BackgroundImageFix"/>
<feBlend mode="normal" in="SourceGraphic" in2="BackgroundImageFix" result="shape"/>
<feGaussianBlur stdDeviation="0.81174" result="effect1_foregroundBlur_831_2"/>
</filter>
<filter id="filter7_f_831_2" x="250.157" y="299.443" width="270.836" height="211.994" filterUnits="userSpaceOnUse" color-interpolation-filters="sRGB">
<feFlood flood-opacity="0" result="BackgroundImageFix"/>
<feBlend mode="normal" in="SourceGraphic" in2="BackgroundImageFix" result="shape"/>
<feGaussianBlur stdDeviation="3.65677" result="effect1_foregroundBlur_831_2"/>
</filter>
<filter id="filter8_f_831_2" x="246.211" y="297.616" width="271.444" height="211.08" filterUnits="userSpaceOnUse" color-interpolation-filters="sRGB">
<feFlood flood-opacity="0" result="BackgroundImageFix"/>
<feBlend mode="normal" in="SourceGraphic" in2="BackgroundImageFix" result="shape"/>
<feGaussianBlur stdDeviation="3.65677" result="effect1_foregroundBlur_831_2"/>
</filter>
<filter id="filter9_f_831_2" x="252.705" y="303.403" width="261.393" height="201.028" filterUnits="userSpaceOnUse" color-interpolation-filters="sRGB">
<feFlood flood-opacity="0" result="BackgroundImageFix"/>
<feBlend mode="normal" in="SourceGraphic" in2="BackgroundImageFix" result="shape"/>
<feGaussianBlur stdDeviation="1.06767" result="effect1_foregroundBlur_831_2"/>
</filter>
<filter id="filter10_f_831_2" x="-44.5089" y="572.685" width="181.717" height="124.825" filterUnits="userSpaceOnUse" color-interpolation-filters="sRGB">
<feFlood flood-opacity="0" result="BackgroundImageFix"/>
<feBlend mode="normal" in="SourceGraphic" in2="BackgroundImageFix" result="shape"/>
<feGaussianBlur stdDeviation="3.65677" result="effect1_foregroundBlur_831_2"/>
</filter>
<filter id="filter11_f_831_2" x="-49.313" y="572.685" width="181.717" height="124.825" filterUnits="userSpaceOnUse" color-interpolation-filters="sRGB">
<feFlood flood-opacity="0" result="BackgroundImageFix"/>
<feBlend mode="normal" in="SourceGraphic" in2="BackgroundImageFix" result="shape"/>
<feGaussianBlur stdDeviation="3.65677" result="effect1_foregroundBlur_831_2"/>
</filter>
<filter id="filter12_f_831_2" x="-42.5333" y="577.863" width="171.361" height="114.468" filterUnits="userSpaceOnUse" color-interpolation-filters="sRGB">
<feFlood flood-opacity="0" result="BackgroundImageFix"/>
<feBlend mode="normal" in="SourceGraphic" in2="BackgroundImageFix" result="shape"/>
<feGaussianBlur stdDeviation="1.06767" result="effect1_foregroundBlur_831_2"/>
</filter>
<filter id="filter13_f_831_2" x="-42.5333" y="577.863" width="171.361" height="114.468" filterUnits="userSpaceOnUse" color-interpolation-filters="sRGB">
<feFlood flood-opacity="0" result="BackgroundImageFix"/>
<feBlend mode="normal" in="SourceGraphic" in2="BackgroundImageFix" result="shape"/>
<feGaussianBlur stdDeviation="1.06767" result="effect1_foregroundBlur_831_2"/>
</filter>
<filter id="filter14_f_831_2" x="-392.356" y="415.37" width="1176.47" height="1179.72" filterUnits="userSpaceOnUse" color-interpolation-filters="sRGB">
<feFlood flood-opacity="0" result="BackgroundImageFix"/>
<feBlend mode="normal" in="SourceGraphic" in2="BackgroundImageFix" result="shape"/>
<feGaussianBlur stdDeviation="128.463" result="effect1_foregroundBlur_831_2"/>
</filter>
<filter id="filter15_f_831_2" x="-107.7" y="-17.7" width="605.4" height="605.4" filterUnits="userSpaceOnUse" color-interpolation-filters="sRGB">
<feFlood flood-opacity="0" result="BackgroundImageFix"/>
<feBlend mode="normal" in="SourceGraphic" in2="BackgroundImageFix" result="shape"/>
<feGaussianBlur stdDeviation="82.85" result="effect1_foregroundBlur_831_2"/>
</filter>
<linearGradient id="paint0_linear_831_2" x1="585" y1="844" x2="585" y2="1688" gradientUnits="userSpaceOnUse">
<stop stop-color="#2960F0"/>
<stop offset="0.515" stop-color="#8A2BF2"/>
<stop offset="1" stop-color="#E4BB91"/>
</linearGradient>
</defs>
</svg>
