<svg width="61" height="61" viewBox="0 0 61 61" fill="none" xmlns="http://www.w3.org/2000/svg">
<circle cx="30.2138" cy="30.2138" r="30.2138" fill="#F5F5F5"/>
<g filter="url(#filter0_d_6_16)">
<path d="M21 26.2941C21 23.7531 21 20.3913 21 17.9979C21 16.341 22.3431 15 24 15H40C41.6569 15 43 16.3431 43 18V44C43 45.6569 41.6569 47 40 47H24C22.3431 47 21 45.6569 21 44V34.7647" stroke="#464646" stroke-linecap="round"/>
</g>
<path d="M11 29.5C10.7239 29.5 10.5 29.7239 10.5 30C10.5 30.2761 10.7239 30.5 11 30.5V29.5ZM28.3536 30.3536C28.5488 30.1583 28.5488 29.8417 28.3536 29.6464L25.1716 26.4645C24.9763 26.2692 24.6597 26.2692 24.4645 26.4645C24.2692 26.6597 24.2692 26.9763 24.4645 27.1716L27.2929 30L24.4645 32.8284C24.2692 33.0237 24.2692 33.3403 24.4645 33.5355C24.6597 33.7308 24.9763 33.7308 25.1716 33.5355L28.3536 30.3536ZM11 30.5H28V29.5H11V30.5Z" fill="#464646"/>
<defs>
<filter id="filter0_d_6_16" x="16.5" y="14.5" width="31" height="41" filterUnits="userSpaceOnUse" color-interpolation-filters="sRGB">
<feFlood flood-opacity="0" result="BackgroundImageFix"/>
<feColorMatrix in="SourceAlpha" type="matrix" values="0 0 0 0 0 0 0 0 0 0 0 0 0 0 0 0 0 0 127 0" result="hardAlpha"/>
<feOffset dy="4"/>
<feGaussianBlur stdDeviation="2"/>
<feComposite in2="hardAlpha" operator="out"/>
<feColorMatrix type="matrix" values="0 0 0 0 0 0 0 0 0 0 0 0 0 0 0 0 0 0 0.25 0"/>
<feBlend mode="normal" in2="BackgroundImageFix" result="effect1_dropShadow_6_16"/>
<feBlend mode="normal" in="SourceGraphic" in2="effect1_dropShadow_6_16" result="shape"/>
</filter>
</defs>
</svg>
